<svg width="56" height="56" viewBox="0 0 56 56" fill="none" xmlns="http://www.w3.org/2000/svg">
<rect width="56" height="56" rx="28" fill="#2B3B50"/>
<path fill-rule="evenodd" clip-rule="evenodd" d="M28 19.8334C28.6443 19.8334 29.1667 20.3557 29.1667 21V26.8334H35C35.6443 26.8334 36.1667 27.3557 36.1667 28C36.1667 28.6444 35.6443 29.1667 35 29.1667H29.1667V35C29.1667 35.6444 28.6443 36.1667 28 36.1667C27.3557 36.1667 26.8333 35.6444 26.8333 35V29.1667H21C20.3557 29.1667 19.8333 28.6444 19.8333 28C19.8333 27.3557 20.3557 26.8334 21 26.8334L26.8333 26.8334V21C26.8333 20.3557 27.3557 19.8334 28 19.8334Z" fill="white"/>
</svg>
