<svg width="40" height="40" viewBox="0 0 40 40" fill="none" xmlns="http://www.w3.org/2000/svg">
<circle cx="20.0013" cy="20" r="18.3333" fill="#DDE0E3"/>
<path d="M37.9998 29.1425H36.7494L35.0941 11.2777C35.0566 10.8499 34.8514 10.4514 34.519 10.1616C34.1866 9.87182 33.7518 9.71187 33.3013 9.71416H23.5998V5.71423C23.5998 5.25964 23.4102 4.8234 23.0727 4.50203C22.7352 4.18067 22.2771 4 21.7999 4H3.79996C3.32264 4 2.86458 4.18061 2.52714 4.50203C2.1897 4.82346 2 5.2597 2 5.71423V10.2856H3.2V5.71423C3.2 5.39867 3.46866 5.14281 3.79999 5.14281H21.7999C21.959 5.14281 22.1117 5.20301 22.2242 5.31015C22.3367 5.41729 22.3999 5.5627 22.3999 5.71423V23.4282H3.2V18.2855H2V32.571H7.115C7.61241 33.9161 8.67444 35.0036 10.0475 35.573C11.4203 36.1423 12.9798 36.1423 14.3525 35.573C15.7255 35.0036 16.7876 33.9161 17.285 32.571H22.715C23.2124 33.9161 24.2745 35.0036 25.6475 35.573C27.0203 36.1423 28.5798 36.1423 29.9525 35.573C31.3255 35.0036 32.3876 33.9161 32.885 32.571H38L37.9998 29.1425ZM34.8037 21.1427H26.5999C26.2685 21.1427 25.9999 20.8868 25.9999 20.5712V13.7142C25.9999 13.3987 26.2685 13.1428 26.5999 13.1428H34.0618L34.8037 21.1427ZM23.5999 24.5712V10.8571H33.3013C33.6137 10.8543 33.8754 11.0816 33.9013 11.3783L33.9613 11.9999H26.5995C26.1222 11.9999 25.6642 12.1806 25.3267 12.502C24.9893 12.8234 24.7996 13.2597 24.7996 13.7142V20.5712C24.7996 21.0258 24.9892 21.462 25.3267 21.7834C25.6642 22.1048 26.1223 22.2854 26.5995 22.2854H34.909L35.5443 29.1425H32.8845C32.3871 27.7973 31.3251 26.7099 29.952 26.1405C28.5792 25.5711 27.0198 25.5711 25.6471 26.1405C24.2741 26.7098 23.212 27.7973 22.7145 29.1425H17.2845C16.7871 27.7973 15.7251 26.7099 14.352 26.1405C12.9792 25.5711 11.4198 25.5711 10.0471 26.1405C8.67405 26.7098 7.61195 27.7973 7.11454 29.1425H3.19954V24.5711L23.5999 24.5712ZM3.19998 31.4282V30.2854H6.83534C6.7882 30.665 6.7882 31.0487 6.83534 31.4282H3.19998ZM12.1999 34.8567C11.0859 34.8567 10.0177 34.4353 9.23019 33.6851C8.44245 32.9351 7.99996 31.9178 7.99996 30.8568C7.99996 29.7958 8.44245 28.7785 9.23019 28.0285C10.0177 27.2783 11.0859 26.8569 12.1999 26.8569C13.314 26.8569 14.3821 27.2783 15.1697 28.0285C15.9574 28.7785 16.3999 29.7958 16.3999 30.8568C16.3986 31.9172 15.9558 32.9341 15.1683 33.6838C14.3811 34.4338 13.3134 34.8554 12.1999 34.8567ZM17.5645 31.4282C17.6117 31.0486 17.6117 30.6649 17.5645 30.2854H22.4352C22.3881 30.665 22.3881 31.0487 22.4352 31.4282H17.5645ZM27.8002 34.8567C26.6861 34.8567 25.6179 34.4353 24.8304 33.6851C24.0427 32.9351 23.6002 31.9178 23.6002 30.8568C23.6002 29.7958 24.0427 28.7785 24.8304 28.0285C25.6179 27.2783 26.6861 26.8569 27.8002 26.8569C28.9142 26.8569 29.9824 27.2783 30.7699 28.0285C31.5576 28.7785 32.0001 29.7958 32.0001 30.8568C31.9988 31.9172 31.556 32.9341 30.7685 33.6838C29.9813 34.4338 28.9136 34.8554 27.8002 34.8567ZM36.8001 31.4282H33.1648C33.2119 31.0486 33.2119 30.6649 33.1648 30.2854H36.8001V31.4282Z" fill="#2B3B50"/>
<path d="M2.2207 13.8281H12.5403V14.8109H2.2207V13.8281Z" fill="#2B3B50"/>
<path d="M3.25266 15.7937H12.5403V16.7765H3.25266V15.7937Z" fill="#2B3B50"/>
<path d="M4.28462 11.8625H12.5403V12.8453H4.28462V11.8625Z" fill="#2B3B50"/>
<path d="M2 11.4285H3.2V12.5714H2V11.4285Z" fill="#2B3B50"/>
</svg>
