<svg id="attach" viewBox="0 0 40 40" xmlns="http://www.w3.org/2000/svg">
<path fill-rule="evenodd" clip-rule="evenodd" d="M40 20C40 31.0457 31.0457 40 20 40C8.9543 40 0 31.0457 0 20C0 8.9543 8.9543 0 20 0C31.0457 0 40 8.9543 40 20ZM21.4118 16V21.5C21.4118 21.8978 21.263 22.2794 20.9983 22.5607C20.7335 22.842 20.3744 23 20 23C19.6256 23 19.2665 22.842 19.0017 22.5607C18.737 22.2794 18.5882 21.8978 18.5882 21.5V16H16.7059V21.5C16.7059 22.4283 17.0529 23.3185 17.6707 23.9749C18.2885 24.6313 19.1263 25 20 25C20.8737 25 21.7115 24.6313 22.3293 23.9749C22.9471 23.3185 23.2941 22.4283 23.2941 21.5V16C23.2941 14.4087 22.6992 12.8826 21.6401 11.7574C20.5811 10.6321 19.1448 10 17.6471 10C16.1494 10 14.713 10.6321 13.654 11.7574C12.595 12.8826 12 14.4087 12 16V21.5C12 23.7543 12.8429 25.9163 14.3431 27.5104C15.8434 29.1045 17.8783 30 20 30C22.1217 30 24.1566 29.1045 25.6569 27.5104C27.1571 25.9163 28 23.7543 28 21.5V12H26.1176V21.5C26.1176 23.2239 25.4731 24.8772 24.3258 26.0962C23.1785 27.3152 21.6225 28 20 28C18.3775 28 16.8215 27.3152 15.6742 26.0962C14.5269 24.8772 13.8824 23.2239 13.8824 21.5V16C13.8824 14.9391 14.279 13.9217 14.985 13.1716C15.691 12.4214 16.6486 12 17.6471 12C18.6455 12 19.6031 12.4214 20.3091 13.1716C21.0151 13.9217 21.4118 14.9391 21.4118 16Z"/>
</svg>
