<svg width="185" height="36" viewBox="0 0 185 36" fill="none" xmlns="http://www.w3.org/2000/svg">
<path d="M29.2383 0L0 2.04828L3.56107 3.16552L36.4229 0.62069L29.2383 0Z" fill="#2B3B50"/>
<path d="M36.5478 8.93793L4.56067 13.9655L10.1209 17.6897L45.5442 10.9241L36.5478 8.93793Z" fill="#2B3B50"/>
<path d="M10.8706 29.1724L18.6175 36L55.3528 23.0897L44.7321 19.5517L10.8706 29.1724Z" fill="#2B3B50"/>
<path d="M67.0356 0.496552V12.2276H69.2222V2.54483H76.9691V12.2276H79.1557V0.496552H67.0356Z" fill="#2B3B50"/>
<path d="M88.6519 7.2H95.7116V5.27586H88.6519V2.48276H96.5863V0.496552H86.5278V12.2276H96.6487V10.2414H88.6519V7.2Z" fill="#2B3B50"/>
<path d="M111.955 5.15172C111.768 5.46207 111.455 5.64828 111.143 5.83448C110.768 6.02069 110.393 6.08276 110.018 6.08276H105.833V2.54483H110.018C110.393 2.54483 110.831 2.6069 111.143 2.7931C111.518 2.91724 111.768 3.16552 111.955 3.41379C112.143 3.66207 112.267 3.97241 112.267 4.28276C112.267 4.53103 112.143 4.90345 111.955 5.15172ZM112.58 0.993103C111.955 0.682759 111.33 0.496552 110.581 0.496552H103.583V12.2276H105.77V8.13103H110.268C111.08 8.13103 111.768 7.94483 112.455 7.63448C113.08 7.26207 113.642 6.82759 114.017 6.2069C114.392 5.58621 114.579 4.96552 114.579 4.22069C114.579 3.53793 114.392 2.91724 114.017 2.35862C113.704 1.73793 113.205 1.30345 112.58 0.993103Z" fill="#2B3B50"/>
<path d="M129.76 9.55862C129.573 9.8069 129.261 9.9931 128.886 10.1172C128.511 10.2414 128.074 10.3034 127.574 10.3034H122.638V7.13793H127.449C127.824 7.13793 128.199 7.2 128.636 7.26207C129.011 7.38621 129.386 7.51034 129.635 7.75862C129.885 8.0069 130.01 8.31724 130.01 8.68966C130.135 9.06207 130.01 9.31034 129.76 9.55862ZM122.701 2.48276H127.199C127.824 2.48276 128.386 2.6069 128.823 2.7931C129.261 2.97931 129.511 3.35172 129.511 3.84828C129.511 4.15862 129.386 4.4069 129.198 4.5931C129.011 4.77931 128.761 4.96552 128.448 5.08965C128.136 5.21379 127.761 5.27586 127.386 5.27586H122.763V2.48276H122.701ZM130.823 6.26897C130.51 6.08276 130.198 5.95862 129.885 5.89655C130.385 5.71034 130.823 5.46207 131.072 5.08965C131.51 4.65517 131.697 4.09655 131.697 3.47586C131.697 2.85517 131.51 2.29655 131.197 1.86207C130.823 1.42759 130.323 1.11724 129.635 0.868965C128.948 0.62069 128.136 0.496552 127.074 0.496552H120.577V12.2276H127.574C128.136 12.2276 128.698 12.1655 129.261 12.0414C129.823 11.9172 130.323 11.731 130.823 11.4828C131.322 11.2345 131.697 10.8621 131.947 10.4276C132.259 9.9931 132.384 9.37241 132.384 8.68966C132.384 8.06896 132.259 7.57241 131.947 7.13793C131.635 6.82759 131.26 6.45517 130.823 6.26897Z" fill="#2B3B50"/>
<path d="M141.318 7.82069L142.943 4.5931C143.068 4.34483 143.13 4.15862 143.255 3.97241C143.38 3.78621 143.442 3.53793 143.567 3.35172C143.692 3.16552 143.755 2.97931 143.817 2.73103C143.88 2.91724 144.005 3.10345 144.067 3.28966C144.13 3.47586 144.255 3.72414 144.38 3.91034C144.505 4.09655 144.567 4.34483 144.692 4.53103L146.316 7.82069H141.318ZM142.693 0.496552L136.883 12.2276H139.132L140.381 9.74483H147.191L148.44 12.2276H150.814L145.067 0.496552H142.693Z" fill="#2B3B50"/>
<path d="M164.934 2.48276V6.14483H160.623C160.248 6.14483 159.873 6.08276 159.499 5.89655C159.186 5.71034 158.874 5.52414 158.686 5.21379C158.499 4.90345 158.374 4.5931 158.374 4.22069C158.374 3.91034 158.499 3.6 158.686 3.35172C158.874 3.10345 159.186 2.91724 159.499 2.73103C159.811 2.54483 160.186 2.48276 160.623 2.48276H164.934ZM158.124 0.993103C157.499 1.30345 157.062 1.73793 156.687 2.29655C156.312 2.85517 156.125 3.47586 156.125 4.15862C156.125 4.90345 156.312 5.52414 156.687 6.14483C157.062 6.70345 157.562 7.2 158.249 7.51034C158.436 7.63448 158.624 7.69655 158.811 7.75862L155.375 12.2276H158.062L161.248 8.0069H164.871V12.2276H166.995V0.496552H160.123C159.436 0.496552 158.686 0.682759 158.124 0.993103Z" fill="#2B3B50"/>
<path d="M69.847 20.5448C70.2843 20.2345 70.7841 19.9241 71.2839 19.7379C71.8462 19.5517 72.4085 19.4897 72.9707 19.4897C73.5955 19.4897 74.1577 19.5517 74.72 19.6759C75.2198 19.8 75.7196 19.9862 76.1569 20.2345C76.5943 20.4828 76.9691 20.731 77.344 21.1034L78.5935 19.3034C78.2186 18.9931 77.7813 18.6828 77.219 18.3724C76.6567 18.0621 76.032 17.8138 75.3448 17.6897C74.6575 17.5034 73.9079 17.4414 73.1581 17.4414C72.221 17.4414 71.3464 17.5655 70.4717 17.8759C69.6596 18.1862 68.9099 18.5586 68.2226 19.1172C67.5979 19.6759 67.0981 20.2966 66.7232 21.0414C66.3484 21.7862 66.161 22.5931 66.161 23.4621C66.161 24.3931 66.3484 25.2 66.7232 25.9448C67.0981 26.6897 67.5979 27.3103 68.2226 27.869C68.8474 28.4276 69.5971 28.8 70.4717 29.1103C71.3464 29.4207 72.221 29.5448 73.2206 29.5448C74.0328 29.5448 74.7825 29.4207 75.4697 29.2345C76.157 29.0483 76.7817 28.8 77.344 28.4897C77.9062 28.1793 78.3436 27.931 78.6559 27.6828L77.5939 25.9448C77.2815 26.1931 76.9066 26.4414 76.5318 26.6897C76.1569 26.9379 75.6572 27.1241 75.1573 27.3103C74.6576 27.4966 74.0328 27.5586 73.3456 27.5586C72.7208 27.5586 72.0961 27.4966 71.5338 27.3103C70.9715 27.1241 70.4093 26.8759 69.9719 26.5655C69.5346 26.2552 69.1598 25.8207 68.8474 25.3241C68.5975 24.8276 68.4725 24.269 68.4725 23.5862C68.4725 22.9655 68.5975 22.4069 68.8474 21.9103C69.0348 21.2897 69.4097 20.9172 69.847 20.5448Z" fill="#2B3B50"/>
<path d="M83.6539 19.6138H88.2146V29.2966H90.4012V19.6138H95.0869V17.5655H83.6539V19.6138Z" fill="#2B3B50"/>
<path d="M107.269 22.5931L106.957 23.0276L102.709 17.5655H99.835L105.583 24.7034L101.959 29.2966H104.583L108.394 24.331L113.704 17.5655H111.018L107.269 22.5931Z" fill="#2B3B50"/>
<path d="M118.515 17.5655V29.2966H120.702V19.6138H128.448V29.2966H130.635V17.5655H118.515Z" fill="#2B3B50"/>
<path d="M139.944 24.269H147.004V22.3448H139.944V19.5517H147.878V17.5655H137.82V29.2966H147.941V27.3103H139.944V24.269Z" fill="#2B3B50"/>
<path d="M164.871 22.531H157.124V17.5655H154.938V29.2966H157.124V24.5793H164.871V29.2966H167.058V17.5655H164.871V22.531Z" fill="#2B3B50"/>
<path d="M182.427 26.5034C182.239 26.7517 181.927 26.9379 181.615 27.1241C181.24 27.2483 180.865 27.3724 180.49 27.3724H176.304V23.7724H180.49C180.865 23.7724 181.302 23.8345 181.615 24.0207C181.989 24.2069 182.239 24.3931 182.427 24.7034C182.614 25.0138 182.739 25.3241 182.739 25.6345C182.739 25.9448 182.614 26.1931 182.427 26.5034ZM184.426 23.6483C184.051 23.0276 183.489 22.5931 182.864 22.2207C182.239 21.8483 181.49 21.7241 180.678 21.7241H176.179V17.6276H173.993V29.3586H180.99C181.74 29.3586 182.364 29.1724 182.989 28.8621C183.614 28.5517 184.051 28.1172 184.426 27.5586C184.801 27 184.988 26.3793 184.988 25.6966C185.051 24.8897 184.863 24.2069 184.426 23.6483Z" fill="#2B3B50"/>
</svg>
