<svg width="28" height="20" viewBox="0 0 28 20" fill="none" xmlns="http://www.w3.org/2000/svg">
<path d="M28 14.7826C28 11.7391 25.7049 9.56522 22.4918 9.56522V9.13044C22.9508 7.65217 24.0525 6.08696 25.1541 4.69565L27.082 2.6087L25.2459 0C23.5934 0.95652 22.1246 2 20.9311 3.30435C18.7279 5.47826 16.5246 8.86957 16.5246 13.4783C16.5246 17.913 18.8197 20 22.4918 20C25.7049 20 28 17.8261 28 14.7826ZM11.4754 14.7826C11.4754 11.7391 9.18033 9.56522 5.96721 9.56522V9.13044C6.42623 7.65217 7.52787 6.08696 8.62951 4.69565L10.5574 2.6087L8.72131 0C7.06885 0.95652 5.6 2 4.40656 3.30435C2.20328 5.47826 0 8.86957 0 13.4783C0 17.913 2.29508 20 5.96721 20C9.18033 20 11.4754 17.8261 11.4754 14.7826Z" fill="#2B3B50"/>
</svg>
