<svg id="viber" viewBox="0 0 18 20" xmlns="http://www.w3.org/2000/svg">
<path d="M5.33046 4.14977C5.1572 4.12389 4.98049 4.15945 4.82975 4.25053H4.81689C4.46691 4.46025 4.15164 4.72532 3.88279 5.03588C3.65937 5.29996 3.53816 5.56717 3.50634 5.82437C3.48735 5.97769 3.50021 6.131 3.5449 6.27743L3.56081 6.28745C3.81239 7.04339 4.14111 7.77055 4.54266 8.45516C5.05991 9.41693 5.69648 10.3064 6.43657 11.1016L6.4586 11.1341L6.4935 11.1605L6.51553 11.1867L6.54124 11.2093C7.32188 11.968 8.19401 12.6219 9.13666 13.1548C10.214 13.7543 10.8678 14.0378 11.2601 14.1554V14.1616C11.3752 14.1974 11.4798 14.2136 11.5852 14.2136C11.9195 14.1885 12.2361 14.0498 12.4843 13.8194C12.7867 13.5445 13.0431 13.2208 13.2434 12.8613V12.855C13.4313 12.4934 13.3677 12.151 13.0965 11.9195C12.5534 11.4342 11.9662 11.0032 11.3427 10.6323C10.9252 10.4007 10.5011 10.5409 10.3291 10.7756L9.96243 11.248C9.77448 11.4827 9.43291 11.4501 9.43291 11.4501L9.42311 11.4564C6.87607 10.7912 6.19662 8.15478 6.19662 8.15478C6.19662 8.15478 6.16479 7.79624 6.40046 7.61349L6.85954 7.23551C7.0793 7.05279 7.23234 6.61974 6.99666 6.19233C6.63637 5.55413 6.21566 4.95362 5.74059 4.39946C5.63672 4.26882 5.49102 4.17993 5.32924 4.14852L5.33046 4.14977Z" />
<path d="M9.63466 3.00376C9.37713 3.00376 9.16828 3.21722 9.16828 3.48054C9.16828 3.74386 9.37713 3.95733 9.63466 3.95733C10.8141 3.95733 11.7942 4.35146 12.5685 5.10615C12.967 5.51943 13.2773 6.00861 13.481 6.54394C13.6855 7.08128 13.7784 7.65425 13.7546 8.22821C13.7437 8.49121 13.9434 8.71358 14.2007 8.72474C14.4581 8.73599 14.6756 8.53173 14.6865 8.26864C14.7159 7.56261 14.6013 6.85815 14.3502 6.19823C14.0991 5.53834 13.717 4.937 13.2272 4.43076L13.2179 4.4216C12.2571 3.4823 11.0393 3.00376 9.63466 3.00376Z" />
<path d="M9.60295 4.57175C9.34541 4.57175 9.13657 4.78521 9.13657 5.04853C9.13657 5.31185 9.34541 5.52532 9.60295 5.52532H9.61815C10.4693 5.58664 11.0886 5.87666 11.5228 6.35272C11.9672 6.84301 12.1974 7.45199 12.1803 8.20551C12.1744 8.4687 12.3784 8.68707 12.6358 8.69317C12.8934 8.69928 13.107 8.49082 13.1129 8.22754C13.1353 7.23822 12.824 6.38511 12.2064 5.70394L12.2055 5.70305C11.5744 5.01068 10.7085 4.6444 9.66544 4.57281L9.64987 4.57175H9.60295Z" />
<path d="M9.58532 6.16837C9.32806 6.15453 9.10859 6.35648 9.09506 6.61943C9.08154 6.88239 9.27909 7.10678 9.53625 7.12062C9.9268 7.14164 10.1757 7.26137 10.3322 7.42294C10.4894 7.58521 10.607 7.84506 10.6284 8.25243C10.6423 8.51543 10.862 8.71711 11.1192 8.7029C11.3764 8.68879 11.5737 8.46422 11.5599 8.20122C11.5297 7.62906 11.3546 7.12322 10.995 6.75196C10.6347 6.38001 10.1426 6.19836 9.58532 6.16837Z" />
<path fill-rule="evenodd" clip-rule="evenodd" d="M4.49285 0.508708C7.46096 -0.169569 10.539 -0.169569 13.5071 0.508708L13.8234 0.58097C15.5927 0.985276 16.989 2.37256 17.435 4.16898C18.1883 7.20405 18.1883 10.3835 17.435 13.4185C16.989 15.215 15.5926 16.6022 13.8234 17.0065L13.5071 17.0788C11.6427 17.5049 9.73493 17.6633 7.83826 17.5541L5.36346 19.8178C5.17343 19.9916 4.90593 20.046 4.66533 19.9597C4.42472 19.8734 4.24912 19.66 4.20702 19.4029L3.79771 16.9033C2.20979 16.3988 0.978642 15.0846 0.565057 13.4185C-0.188352 10.3835 -0.188352 7.20405 0.565057 4.16898C1.01098 2.37256 2.40738 0.985276 4.17662 0.58097L4.49285 0.508708ZM13.2019 1.90462C10.4348 1.27228 7.56524 1.27228 4.79807 1.90462L4.48184 1.97689C3.22743 2.26353 2.23737 3.24714 1.92121 4.52081C1.22511 7.32499 1.22511 10.2625 1.92121 13.0666C2.23737 14.3403 3.22742 15.3239 4.48184 15.6106L4.56537 15.6297C4.84323 15.6932 5.05573 15.9225 5.10274 16.2095L5.37722 17.8859L7.12369 16.2884C7.26471 16.1594 7.45079 16.0942 7.63958 16.108C9.49904 16.2425 11.3729 16.1008 13.2019 15.6829L13.5181 15.6106C14.7726 15.3239 15.7626 14.3403 16.0788 13.0666C16.7748 10.2625 16.7748 7.32499 16.0788 4.52081C15.7626 3.24714 14.7726 2.26354 13.5181 1.97689L13.2019 1.90462Z" />
</svg>
