<svg width="48" height="48" viewBox="0 0 48 48" fill="none" xmlns="http://www.w3.org/2000/svg">
<circle cx="24" cy="24" r="22" fill="#DDE0E3"/>
<path d="M6.6005 25.7301L9.22176 24.2386C9.47745 24.0931 9.66737 23.8571 9.75294 23.5786L12.5357 14.5221C12.8306 13.5625 14.1457 13.4131 14.6544 14.2814L27.7211 36.5863C28.2204 37.4385 27.4688 38.4734 26.4893 38.2825L17.3113 36.4938C17.0351 36.44 16.7486 36.4868 16.5048 36.6255L13.8637 38.1283M6.6005 25.7301L3.58125 27.448C3.02542 27.7643 2.83498 28.4647 3.15589 29.0125L9.25696 39.427C9.57787 39.9748 10.2886 40.1625 10.8444 39.8463L13.8637 38.1283M6.6005 25.7301L13.8637 38.1283M24.4673 24.1599L27.4866 22.442M21.7466 20.0306L23.3901 17.2252M26.7355 28.5468H30.0224" stroke="#2B3B50" stroke-linecap="round"/>
<path d="M37.7567 15.6177L39.5102 9.16812C39.6491 8.6572 39.3646 8.17149 38.8461 8.03456C38.3277 7.89765 37.8349 8.17808 37.6959 8.68902L35.9424 15.1386L29.3982 13.4104C28.8797 13.2735 28.3869 13.554 28.248 14.0649C28.109 14.5758 28.3936 15.0615 28.912 15.1985L35.4563 16.9266L33.7027 23.3762C33.5638 23.8871 33.8484 24.3729 34.3668 24.5098C34.6258 24.5782 34.8787 24.5423 35.0842 24.4254C35.2896 24.3085 35.4476 24.1106 35.517 23.8553L37.2705 17.4058L43.8148 19.1339C44.0737 19.2023 44.3267 19.1665 44.5321 19.0496C44.7376 18.9327 44.8955 18.7347 44.9649 18.4795C45.1038 17.9685 44.8193 17.4828 44.3009 17.3459L37.7567 15.6177Z" fill="#2B3B50"/>
</svg>
