<svg width="48" height="48" viewBox="0 0 48 48" fill="none" xmlns="http://www.w3.org/2000/svg">
<circle cx="24" cy="24" r="22" fill="#DDE0E3"/>
<path d="M37.6405 6C37.6399 6 37.6394 6 37.6389 6H32.8611C32.2014 6 31.6667 6.53726 31.6667 7.2V13.2L25.6944 13.2C25.0348 13.2 24.5 13.7373 24.5 14.4V20.4L18.5278 20.4C17.8681 20.4 17.3333 20.9373 17.3333 21.6L17.3333 27.6H11.3611C10.7014 27.6 10.1667 28.1373 10.1667 28.8V34.8H4.19444C3.53477 34.8 3 35.3373 3 36V40.8C3 41.4627 3.53477 42 4.19444 42H16.1389C16.1801 42 16.2209 41.9979 16.261 41.9938C16.8633 41.9324 17.3333 41.4213 17.3333 40.8V34.8L23.3056 34.8C23.9652 34.8 24.5 34.2627 24.5 33.6V27.6L30.4722 27.6C31.1319 27.6 31.6667 27.0627 31.6667 26.4V20.4L37.6389 20.4C38.2573 20.4 38.766 19.9278 38.8272 19.3227C38.8312 19.2824 38.8333 19.2414 38.8333 19.2V13.2L44.8056 13.2C45.4652 13.2 46 12.6627 46 12V7.2C46 6.53726 45.4652 6 44.8056 6L37.6405 6Z" stroke="#2B3B50"/>
</svg>
