<svg width="460" height="84" viewBox="0 0 460 84" fill="none" xmlns="http://www.w3.org/2000/svg">
<path d="M67.55 13V23.65L69.95 25.45C70.34 25.18 70.79 24.97 71.3 24.76C72.14 24.43 73.28 24.1 74.6 24.1C77.6 24.1 79.1 25.6 79.1 27.55C79.1 29.5 77.6 31 74 31C72.32 31 70.91 30.52 69.83 29.95C69.2 29.65 68.66 29.29 68.15 28.9L66.35 31.75C66.98 32.29 67.73 32.77 68.54 33.16C69.89 33.88 71.9 34.6 74.3 34.6C80.21 34.6 83.45 31.36 83.45 27.55C83.45 23.65 80.3 20.5 75.35 20.5C74.3 20.5 73.46 20.65 72.77 20.86C72.38 20.98 72.05 21.1 71.75 21.25V16.45H82.4V13H67.55Z" fill="#2B3B50"/>
<path d="M99 32.8L101.2 27.9H101.3L102 34H104.7L103.5 24H100.6L97.9 29.9H97.8L95.1 24H92.2L91 34H93.7L94.4 27.9H94.5L96.7 32.8H99ZM114.703 32.8L116.903 27.9H117.003L117.703 34H120.403L119.203 24H116.303L113.603 29.9H113.503L110.803 24H107.903L106.703 34H109.403L110.103 27.9H110.203L112.403 32.8H114.703Z" fill="#2B3B50"/>
<path d="M44 63L49.5 55L55 63" stroke="black"/>
<path d="M44 40L49.5 48L55 40" stroke="black"/>
<line x1="49.5" y1="-2.18557e-08" x2="49.5" y2="84" stroke="black"/>
<rect x="0.5" y="48.5" width="459" height="6" rx="1.5" stroke="black"/>
</svg>
