<svg width="32" height="32" viewBox="0 0 32 32" fill="none" xmlns="http://www.w3.org/2000/svg">
<path d="M32 16C32 24.8366 24.8366 32 16 32C7.16344 32 0 24.8366 0 16C0 7.16344 7.16344 0 16 0C24.8366 0 32 7.16344 32 16Z" fill="#2B3B50"/>
<path d="M17.2 8.66667H14.2133V15.4933L14.64 19.12H16.7733L17.2 15.4933V8.66667ZM14 22.2133C14 23.0667 14.7467 23.8133 15.7067 23.8133C16.6667 23.8133 17.4133 23.0667 17.4133 22.2133C17.4133 21.36 16.6667 20.6133 15.7067 20.6133C14.7467 20.6133 14 21.36 14 22.2133Z" fill="white"/>
</svg>
