<svg width="229" height="229" viewBox="0 0 229 229" fill="none" xmlns="http://www.w3.org/2000/svg">
<rect x="1.5" y="69.5" width="139" height="99" rx="3.5" stroke="#2B3B50"/>
<rect x="6.5" y="74.5" width="129" height="89" rx="1.5" stroke="#2B3B50"/>
<path d="M161 77L166.5 69L172 77" stroke="black"/>
<path d="M161 161L166.5 169L172 161" stroke="black"/>
<line x1="166.5" y1="69" x2="166.5" y2="169" stroke="black"/>
<path d="M9 53L1 47.5L9 42" stroke="black"/>
<path d="M133 53L141 47.5L133 42" stroke="black"/>
<line x1="1" y1="47.5" x2="141" y2="47.5" stroke="black"/>
<path d="M149 224L141 218.5L149 213" stroke="black"/>
<path d="M127 224L135 218.5L127 213" stroke="black"/>
<line x1="45" y1="218.5" x2="171" y2="218.5" stroke="black"/>
<line x1="135.5" y1="180" x2="135.5" y2="229" stroke="black"/>
<line x1="140.5" y1="180" x2="140.5" y2="229" stroke="black"/>
<path d="M31.2139 15L24.6139 20.4L26.7139 23.1L30.4639 20.1H30.6139V36H34.8139V15H31.2139ZM38.2662 31.8H50.1162V36H54.3162V31.8H57.1662V28.2H54.3162V15H50.1162L38.2662 28.2V31.8ZM43.2162 28.2V28.05L49.9662 20.4H50.1162V28.2H43.2162ZM63.4791 25.5C63.4791 20.58 66.0291 18 68.8791 18C71.7291 18 74.2791 20.58 74.2791 25.5C74.2791 30.42 71.7291 33 68.8791 33C66.0291 33 63.4791 30.42 63.4791 25.5ZM78.4791 25.5C78.4791 18.63 74.2791 14.4 68.8791 14.4C63.4791 14.4 59.2791 18.63 59.2791 25.5C59.2791 32.37 63.4791 36.6 68.8791 36.6C74.2791 36.6 78.4791 32.37 78.4791 25.5Z" fill="#2B3B50"/>
<path d="M93.2969 34.8L95.4969 29.9H95.5969L96.2969 36H98.9969L97.7969 26H94.8969L92.1969 31.9H92.0969L89.3969 26H86.4969L85.2969 36H87.9969L88.6969 29.9H88.7969L90.9969 34.8H93.2969ZM109 34.8L111.2 29.9H111.3L112 36H114.7L113.5 26H110.6L107.9 31.9H107.8L105.1 26H102.2L101 36H103.7L104.4 29.9H104.5L106.7 34.8H109Z" fill="#2B3B50"/>
<path d="M182.2 80.09L182.2 91.94L178 91.94L178 96.14L182.2 96.14L182.2 98.99L185.8 98.99L185.8 96.14L199 96.14L199 91.94L185.8 80.09L182.2 80.09ZM185.8 85.04L185.95 85.04L193.6 91.79L193.6 91.94L185.8 91.94L185.8 85.04ZM188.5 105.303C193.42 105.303 196 107.853 196 110.703C196 113.553 193.42 116.103 188.5 116.103C183.58 116.103 181 113.553 181 110.703C181 107.853 183.58 105.303 188.5 105.303ZM188.5 120.303C195.37 120.303 199.6 116.103 199.6 110.703C199.6 105.303 195.37 101.103 188.5 101.103C181.63 101.103 177.4 105.303 177.4 110.703C177.4 116.103 181.63 120.303 188.5 120.303Z" fill="#2B3B50"/>
<path d="M179.2 135.297L184.1 137.497L184.1 137.597L178 138.297L178 140.997L188 139.797L188 136.897L182.1 134.197L182.1 134.097L188 131.397L188 128.497L178 127.297L178 129.997L184.1 130.697L184.1 130.797L179.2 132.997L179.2 135.297ZM179.2 151L184.1 153.2L184.1 153.3L178 154L178 156.7L188 155.5L188 152.6L182.1 149.9L182.1 149.8L188 147.1L188 144.2L178 143L178 145.7L184.1 146.4L184.1 146.5L179.2 148.7L179.2 151Z" fill="#2B3B50"/>
<path d="M62.0012 186V196.65L64.4012 198.45C64.7912 198.18 65.2412 197.97 65.7512 197.76C66.5912 197.43 67.7312 197.1 69.0512 197.1C72.0512 197.1 73.5512 198.6 73.5512 200.55C73.5512 202.5 72.0512 204 68.4512 204C66.7712 204 65.3612 203.52 64.2812 202.95C63.6512 202.65 63.1112 202.29 62.6012 201.9L60.8012 204.75C61.4312 205.29 62.1812 205.77 62.9912 206.16C64.3412 206.88 66.3512 207.6 68.7512 207.6C74.6612 207.6 77.9012 204.36 77.9012 200.55C77.9012 196.65 74.7512 193.5 69.8012 193.5C68.7512 193.5 67.9112 193.65 67.2212 193.86C66.8312 193.98 66.5012 194.1 66.2012 194.25V189.45H76.8512V186H62.0012Z" fill="#2B3B50"/>
<path d="M93.2969 205.8L95.4969 200.9H95.5969L96.2969 207H98.9969L97.7969 197H94.8969L92.1969 202.9H92.0969L89.3969 197H86.4969L85.2969 207H87.9969L88.6969 200.9H88.7969L90.9969 205.8H93.2969ZM109 205.8L111.2 200.9H111.3L112 207H114.7L113.5 197H110.6L107.9 202.9H107.8L105.1 197H102.2L101 207H103.7L104.4 200.9H104.5L106.7 205.8H109Z" fill="#2B3B50"/>
</svg>
