<svg width="128" height="128" viewBox="0 0 128 128" fill="none" xmlns="http://www.w3.org/2000/svg">
<path d="M62.8698 75.8184C62.8698 71.945 63.8449 68.4017 65.795 65.1884C67.7452 61.9312 70.4488 59.3563 73.9058 57.4636C77.0526 55.7909 79.5125 53.392 81.2853 50.2668C83.1025 47.0977 84.0111 43.6424 84.0111 39.901C84.0111 36.2036 83.1025 32.8583 81.2853 29.8652C79.4681 26.8281 77.0305 24.4292 73.9723 22.6685C70.9584 20.8638 67.6122 19.9615 63.9335 19.9615C60.2548 19.9615 56.9086 20.8638 53.8947 22.6685C50.8809 24.4292 48.4654 26.8281 46.6482 29.8652C44.8753 32.8583 43.9889 36.2036 43.9889 39.901H40C40 35.4993 41.0859 31.4938 43.2576 27.8845C45.4294 24.2751 48.3102 21.392 51.9003 19.2352C55.5346 17.0784 59.5457 16 63.9335 16C68.3657 16 72.3989 17.0784 76.0332 19.2352C79.6676 21.392 82.5706 24.2751 84.7424 27.8845C86.9141 31.4938 88 35.4993 88 39.901C88 44.3906 86.9141 48.5282 84.7424 52.3136C82.5706 56.055 79.5789 58.9601 75.7673 61.0289C72.9751 62.5254 70.7812 64.5942 69.1856 67.2352C67.6343 69.8322 66.8587 72.6933 66.8587 75.8184H62.8698ZM63.9335 112C63.1357 112 62.4488 111.692 61.8726 111.076C61.2964 110.459 61.0083 109.755 61.0083 108.963C61.0083 108.171 61.2964 107.488 61.8726 106.916C62.4488 106.344 63.1357 106.058 63.9335 106.058C64.8199 106.058 65.5512 106.344 66.1274 106.916C66.7036 107.488 66.9917 108.171 66.9917 108.963C66.9917 109.755 66.7036 110.459 66.1274 111.076C65.5512 111.692 64.8199 112 63.9335 112Z" fill="#2B3B50"/>
</svg>
