<svg width="48" height="48" viewBox="0 0 48 48" fill="none" xmlns="http://www.w3.org/2000/svg">
<circle cx="24" cy="24" r="22" fill="#DDE0E3"/>
<path fill-rule="evenodd" clip-rule="evenodd" d="M27.7398 20.2963C27.7575 20.3075 27.7752 20.3187 27.793 20.3297L31.012 22.3838C32.0308 23.0342 33.2053 23.2988 34.4379 23.2197C37.3256 23.0345 40.5247 20.9609 42.7508 17.5298C44.2203 15.2643 45.0191 12.7452 44.9997 10.4365C44.9787 7.96406 44.0337 6.00635 42.338 4.92499L39.0659 2.83698C39.051 2.82746 39.036 2.81835 39.0208 2.80965C38.0578 2.2093 36.8974 1.93404 35.6612 2.01334C32.6678 2.20536 29.4745 4.38076 27.327 7.6911C24.1523 12.5857 24.3332 18.1233 27.7398 20.2963ZM31.006 19.0177C30.2124 19.0686 29.5128 18.9101 28.9249 18.5461L28.8896 18.5236L28.8707 18.5118C26.5653 17.0174 26.6739 12.5918 29.1139 8.83007C30.8762 6.11372 33.5005 4.26261 35.7985 4.1152C36.6083 4.06326 37.3202 4.22935 37.9155 4.60933C40.2397 6.09219 40.137 10.5312 37.6905 14.3028C35.9282 17.0191 33.3039 18.8703 31.006 19.0177ZM39.4772 15.4423C41.3213 12.5993 42.0332 9.53959 41.6384 7.04813C42.4274 7.79111 42.8619 8.97663 42.8745 10.4547C42.891 12.3578 42.2123 14.4655 40.9639 16.3902C38.6811 19.9089 35.0177 21.828 32.6496 20.8637C35.1712 20.1726 37.6875 18.2019 39.4772 15.4423Z" fill="#2B3B50"/>
<path fill-rule="evenodd" clip-rule="evenodd" d="M14.83 45.3086C13.5009 44.8376 12.1629 44.1325 10.8808 43.2134C10.8038 43.1711 10.7313 43.1187 10.6653 43.0565C9.34923 42.0836 8.09644 40.884 6.97803 39.4801C2.18358 33.4606 1.64695 25.9277 5.78213 22.6881L9.92436 19.4422C9.94644 19.4245 9.96867 19.4068 9.99103 19.3893C11.1191 18.5054 12.4796 18.0065 14.0336 17.9069C18.0531 17.649 22.8234 20.2097 26.1853 24.4302C30.9645 30.4305 31.5129 37.9338 27.4206 41.1903C27.4081 41.2011 27.3953 41.2116 27.3821 41.2219L23.1719 44.5204C22.0366 45.411 20.6642 45.8861 19.1723 45.9818C17.9342 46.0612 16.6132 45.8798 15.2761 45.458C15.1195 45.442 14.9667 45.3917 14.83 45.3086ZM22.0751 42.6958C21.3359 42.6405 20.58 42.4996 19.8196 42.2796L17.7608 43.8922C19.3224 44.054 20.7494 43.7346 21.8558 42.8677L22.0751 42.6958ZM11.1876 36.1813C12.0176 37.223 12.9332 38.1636 13.9022 38.9856L11.3854 40.9576C10.4189 40.1692 9.49174 39.2361 8.64498 38.173C6.68888 35.7175 5.51292 33.0082 5.17658 30.5766L7.53191 28.7313C8.07533 31.2132 9.30226 33.8143 11.1876 36.1813ZM13.184 42.233L15.6487 40.3017C16.2661 40.7117 16.8959 41.0746 17.5312 41.3865L15.1747 43.2322C14.5129 42.9693 13.8453 42.6348 13.184 42.233ZM7.21695 26.2935C7.19079 25.5516 7.23285 24.8331 7.3439 24.1489L7.09913 24.3407C6.0303 25.1782 5.39327 26.4226 5.16842 27.8985L7.21695 26.2935ZM11.3084 21.0428C12.0923 20.4286 13.0553 20.0812 14.1711 20.0097C17.515 19.7952 21.5766 22.0437 24.5191 25.7367C28.5869 30.8445 29.2805 37.0493 26.0649 39.5689C25.281 40.1831 24.3181 40.5305 23.2023 40.602C19.8584 40.8165 15.7968 38.5689 12.8543 34.8751C8.78643 29.7672 8.0928 23.5624 11.3084 21.0428Z" fill="#2B3B50"/>
<path d="M12.1001 26.87L12.011 26.9154L12.075 26.9922L15.8508 31.5257L14.7759 32.0734L14.6868 32.1188L14.7508 32.1957L15.6284 33.2495L15.6924 33.3263L15.7815 33.2809L16.8565 32.7332L17.3868 33.3699L16.3118 33.9176L16.2227 33.963L16.2867 34.0398L17.1644 35.0936L17.2284 35.1705L17.3175 35.1251L18.3924 34.5774L19.7547 36.2129L19.8187 36.2898L19.9078 36.2444L21.0718 35.6513L21.1609 35.6059L21.0969 35.529L19.7347 33.8934L24.0431 31.6982L24.1322 31.6528L24.0682 31.5759L23.1906 30.5221L23.1266 30.4453L23.0375 30.4907L18.729 32.686L18.1987 32.0493L20.2438 31.0073C21.4572 30.3891 22.1205 29.6225 22.2998 28.7931C22.4791 27.9638 22.1712 27.0863 21.4779 26.2539C20.7739 25.4086 19.8668 24.8269 18.8216 24.6166C17.7763 24.4063 16.6116 24.5712 15.3982 25.1895L12.1001 26.87ZM20.1247 26.9246C20.5211 27.4005 20.6839 27.9202 20.5603 28.4169C20.4366 28.9139 20.0231 29.3998 19.2381 29.7998L17.1931 30.8418L14.3589 27.4389L16.4039 26.3969C17.1889 25.997 17.9243 25.8975 18.5555 26.0099C19.1863 26.1222 19.7283 26.4487 20.1247 26.9246Z" fill="#2B3B50" stroke="#2B3B50" stroke-width="0.2"/>
</svg>
