<svg width="48" height="48" viewBox="0 0 48 48" fill="none" xmlns="http://www.w3.org/2000/svg">
<circle cx="24" cy="24" r="22" fill="#DDE0E3"/>
<path fill-rule="evenodd" clip-rule="evenodd" d="M17.5195 26.2384C16.6895 24.8211 15.8721 23.3313 15.1728 21.8823C13.8772 19.1977 13.0095 16.624 13.0095 14.7977C13.0095 8.83872 17.9338 4 24.0004 4C30.067 4 34.9913 8.83808 34.9913 14.7977C34.9913 16.6243 34.1234 19.1979 32.8277 21.8823C32.1284 23.3313 31.3116 24.8213 30.481 26.2384H38.8192C39.5543 26.2384 40.2119 26.6875 40.4681 27.3639L45.8894 41.6675C46.0906 42.1986 46.0143 42.7921 45.6851 43.2576C45.3564 43.7225 44.8162 44 44.2398 44H3.75969C3.18305 44 2.64311 43.7225 2.31443 43.2576C1.98546 42.7924 1.90955 42.1986 2.11072 41.6675L7.53169 27.3639C7.78791 26.6874 8.44583 26.2384 9.18126 26.2384H17.5195ZM3.75997 42.2715H12.2512L19.1079 39.5067L7.34447 32.814L3.75965 42.2712L3.75997 42.2715ZM43.7647 41.0182L33.9059 35.4094L16.887 42.2715H44.2401L43.765 41.0182H43.7647ZM29.4408 27.9676C27.3414 31.3768 25.4341 34.0136 25.4341 34.0136C25.1036 34.4698 24.5693 34.7404 23.9996 34.7404C23.4299 34.7404 22.8957 34.4695 22.5654 34.0136C22.5654 34.0136 20.6577 31.3768 18.5584 27.9676H9.18134L7.96734 31.1708L21.1632 38.678L39.9992 31.0835L38.8184 27.9676H29.4405H29.4408ZM35.961 34.5807L42.7994 38.471L40.6137 32.7047L35.961 34.5807ZM24 33.0114C24 33.0114 33.2313 20.2615 33.2313 14.7978C33.2313 9.79279 29.0949 5.72956 24 5.72956C18.9055 5.72956 14.7695 9.79295 14.7695 14.7978C14.7695 20.2621 24 33.0114 24 33.0114ZM24 9.20522C20.9823 9.20522 18.5319 11.6123 18.5319 14.5772C18.5319 17.5418 20.9824 19.9488 24 19.9488C27.018 19.9488 29.4681 17.5417 29.4681 14.5772C29.4681 11.6122 27.0179 9.20522 24 9.20522ZM24 10.9342C26.0465 10.9342 27.7082 12.5663 27.7082 14.5772C27.7082 16.5877 26.0465 18.2195 24 18.2195C21.9535 18.2195 20.2919 16.5874 20.2919 14.5772C20.2919 12.5663 21.9535 10.9342 24 10.9342Z" fill="#2B3B50"/>
</svg>
