<svg width="48" height="48" viewBox="0 0 48 48" fill="none" xmlns="http://www.w3.org/2000/svg">
<circle cx="24" cy="24" r="22" fill="#DDE0E3"/>
<path d="M41.3516 41.9993C41.5538 42.0088 41.748 41.9184 41.8714 41.7577C41.9951 41.597 42.0321 41.3859 41.9713 41.1925L37.0137 25.6773C36.9016 25.4301 36.6643 25.2639 36.394 25.2428H27.0985V22.7604H28.9576C29.1275 22.7806 29.2971 22.7219 29.4179 22.6008C29.5388 22.4797 29.5975 22.3099 29.5773 22.1398V6.62453C29.5975 6.45442 29.5388 6.28458 29.4179 6.16351C29.297 6.04244 29.1275 5.98369 28.9576 6.00392H19.0424C18.8725 5.9837 18.703 6.04243 18.5821 6.16351C18.4612 6.28458 18.4025 6.45442 18.4227 6.62453V22.1398C18.4025 22.3099 18.4612 22.4797 18.5821 22.6008C18.703 22.7219 18.8725 22.7806 19.0424 22.7604H20.9015V25.2428H11.606C11.3357 25.2639 11.0984 25.4301 10.9863 25.6773L6.02872 41.1925C5.96785 41.3859 6.00493 41.597 6.12859 41.7577C6.25198 41.9184 6.44619 42.0088 6.64842 41.9993H41.3516ZM19.6621 7.24514H28.3379V21.5192H19.6621V7.24514ZM25.8591 22.7604V26.6082L24 28.6562L22.1409 26.6082V22.7604H25.8591ZM12.0402 26.4841H20.9015V26.8564C20.9098 27.0188 20.9756 27.1728 21.0874 27.2909L23.3803 29.8354V33.3108H14.7045C14.4464 33.3249 14.224 33.4981 14.1468 33.7452L12.9074 37.4689C12.8155 37.6515 12.8305 37.8701 12.9469 38.0382C13.0631 38.2064 13.262 38.2975 13.4651 38.2757H35.1546C35.3455 38.2599 35.5231 38.1709 35.6504 38.0274C35.7842 37.872 35.8089 37.6501 35.7123 37.4689L32.6138 28.7803L31.4984 29.1527L34.287 37.0341H14.3327L15.1383 34.5516H28.3383V33.3104H24.6201V29.835L26.9129 27.2905C27.0247 27.1725 27.0906 27.0184 27.0989 26.8561V26.4837H35.9602L40.484 40.7578H7.516L12.0402 26.4841Z" fill="#2B3B50"/>
</svg>
