<svg width="48" height="48" viewBox="0 0 48 48" fill="none" xmlns="http://www.w3.org/2000/svg">
<circle cx="24" cy="24" r="22" fill="#DDE0E3"/>
<path d="M39.9972 28.134L41.5144 26.6423C42.0243 26.1437 42.3291 25.4772 42.3691 24.7708C42.4088 24.0646 42.1811 23.3692 41.7302 22.8182C41.2793 22.2672 40.6368 21.9 39.9264 21.7876C40.1079 21.2834 40.139 20.7384 40.0168 20.2173C39.8943 19.6958 39.623 19.2197 39.235 18.8447C38.7805 18.3992 38.1877 18.1156 37.5506 18.0387C37.7635 17.3032 37.6671 16.5147 37.2829 15.8499C36.8988 15.1851 36.2592 14.6998 35.5078 14.503C34.7563 14.3062 33.9563 14.4141 33.2867 14.8031C33.1627 14.3006 32.9019 13.841 32.532 13.4738C31.9878 12.9401 31.2514 12.6386 30.4828 12.6347C29.7138 12.6309 28.9746 12.9253 28.425 13.4538L26.3458 15.228L25.1677 13.9858L25.1641 13.9819L21.5537 10.2689C21.9665 7.72027 21.2854 4.03744 19.368 2.15155C18.3314 1.12975 17.011 0.431536 15.5729 0.145481C14.1342 -0.140898 12.6421 -0.00244892 11.2832 0.5429C11.0445 0.637775 10.8697 0.84404 10.8183 1.09212C10.7668 1.34054 10.8454 1.59741 11.0273 1.77697L14.6038 5.29293C14.9472 5.63201 15.1401 6.09092 15.1401 6.5692C15.1401 7.04778 14.9472 7.5067 14.6038 7.84547C14.2633 8.1828 13.7995 8.37185 13.316 8.37009H13.3057C12.8201 8.37114 12.3538 8.18104 12.0115 7.84196L8.43792 4.326C8.25604 4.14679 7.99484 4.06948 7.74257 4.11938C7.4903 4.16928 7.28019 4.3404 7.183 4.57477C6.62629 5.91078 6.48408 7.37847 6.77458 8.79382C7.06544 10.2088 7.77541 11.5076 8.81529 12.5262C11.0296 14.7045 14.303 15.6324 16.9637 14.8359C17.3696 14.7139 17.5986 14.2919 17.475 13.8928C17.351 13.4936 16.9215 13.2687 16.5156 13.3903C14.3845 14.0291 11.7271 13.2529 9.9019 11.4581C8.52264 10.107 7.90912 8.17403 8.26286 6.29165L10.9267 8.91121C11.5552 9.54546 12.4218 9.89648 13.3221 9.88137C14.2119 9.88312 15.0652 9.5349 15.6919 8.914C16.3233 8.29169 16.6777 7.44837 16.6777 6.56924C16.6777 5.69043 16.3232 4.84707 15.6919 4.22485L13.0305 1.60772C14.9433 1.26371 16.9053 1.86634 18.2789 3.21988C19.8565 4.77124 20.4381 8.22117 19.9733 10.3463C19.9204 10.5884 19.9915 10.8404 20.1634 11.0213L23.3182 14.2561L23.1985 14.3176C19.5966 16.2548 17.1769 19.7925 16.7102 23.8033L16.331 26.9201C16.2667 27.4415 16.0266 27.9267 15.6496 28.2989L15.5006 28.4454C15.3523 28.5863 15.268 28.7796 15.2662 28.9823C15.2644 29.1851 15.3456 29.3798 15.491 29.5231C15.6368 29.6665 15.8351 29.7462 16.0413 29.7445C16.2474 29.7427 16.444 29.6594 16.5872 29.514L16.7363 29.3674C17.3566 28.756 17.7511 27.9577 17.8572 27.1003L18.2367 23.9842C18.6429 20.4612 20.7651 17.3521 23.9267 15.6483C24.1121 15.5475 24.274 15.4709 24.4119 15.4066L25.729 16.7924L25.735 16.798L25.74 16.804L28.9159 20.0055L28.9199 20.0079L28.9224 20.0118L31.6152 22.6599C31.5977 22.7073 31.587 22.7565 31.5716 22.805L28.0549 23.3173L27.744 23.012L27.7401 23.0074L24.2198 19.5452C23.9185 19.2589 23.439 19.2631 23.1428 19.5544C22.8462 19.846 22.8423 20.3172 23.1335 20.6138L26.3609 23.7875L25.5022 27.9538C25.4179 28.3628 25.6866 28.7613 26.1025 28.8442C26.1532 28.8544 26.2047 28.8593 26.2562 28.8593C26.621 28.8589 26.9351 28.6063 27.0083 28.2549L27.7062 24.8693C27.7326 24.8732 27.7587 24.8756 27.7851 24.8767C27.823 24.877 27.8605 24.8742 27.8981 24.8686L31.527 24.3401C31.6785 24.9628 32.0391 25.5173 32.5515 25.9129C33.0635 26.3085 33.6967 26.5222 34.3478 26.5194C34.3942 26.5194 34.4385 26.5081 34.4846 26.5064C34.446 27.1933 34.6619 27.8704 35.0921 28.4129C35.5223 28.9551 36.1376 29.3258 36.8244 29.4566C37.5112 29.587 38.223 29.4685 38.8275 29.1228L43.1575 33.3812C43.4805 33.6985 43.6621 34.1293 43.6621 34.5784C43.6621 35.0271 43.4805 35.4579 43.1575 35.7752C42.8295 36.083 42.3936 36.2549 41.9405 36.2549C41.487 36.2549 41.0511 36.083 40.723 35.7752L31.1214 26.3332C30.9785 26.1874 30.7816 26.1041 30.5754 26.1023C30.3692 26.1006 30.1713 26.1804 30.0255 26.3237C29.8797 26.4671 29.7986 26.6621 29.8004 26.8645C29.8022 27.0672 29.8869 27.2609 30.0352 27.4014L34.5825 31.8728L29.2237 35.8522C28.6187 36.302 27.8898 36.5613 27.1319 36.5954L25.7298 36.6593C25.1274 36.6864 24.5575 36.9344 24.1312 37.354L23.0042 38.4622L13.2265 28.8389C12.9214 28.5557 12.4443 28.5557 12.1391 28.8389L2.21567 38.5986C1.92445 38.8948 1.92874 39.3663 2.22496 39.6576C2.52154 39.9492 3.00072 39.9531 3.30226 39.6667L12.6812 30.4437L22.4598 40.0598L23.5561 41.1378L17.8989 46.7009C17.7507 46.8418 17.6663 47.0354 17.6645 47.2378C17.6628 47.4406 17.7439 47.6356 17.8896 47.779C18.0351 47.922 18.2334 48.0017 18.4396 48C18.6457 47.9982 18.8423 47.9153 18.9856 47.7695L25.1897 41.6744C25.4898 41.3792 25.4898 40.901 25.1897 40.6058L24.0924 39.5267L25.2193 38.4185C25.3755 38.2663 25.5834 38.1764 25.8028 38.1669L27.2053 38.1029C28.2727 38.0555 29.2999 37.6901 30.1515 37.0558L35.6793 32.9495L39.6383 36.8432C40.4616 37.6524 41.6611 37.9687 42.7852 37.6721C43.9097 37.3759 44.7877 36.5121 45.089 35.4067C45.3902 34.3009 45.0686 33.1213 44.2457 32.3121L39.9972 28.134ZM29.4511 14.5787C29.465 14.5671 29.4779 14.5552 29.4904 14.5425C29.8438 14.2228 30.3408 14.1061 30.8032 14.2344C31.2656 14.363 31.6268 14.7179 31.758 15.1722C31.8888 15.6266 31.7709 16.1153 31.4461 16.4633L29.4743 18.4012L27.4094 16.3206L29.4511 14.5787ZM33.7718 16.3132C34.1252 15.9934 34.6226 15.8771 35.0846 16.0057C35.547 16.1343 35.9083 16.4895 36.0391 16.9443C36.1698 17.3986 36.0516 17.8874 35.7264 18.2349L35.1118 18.8393H35.1086L32.5126 21.3921L30.5585 19.4704L33.7718 16.3132ZM33.3716 24.6094C33.1132 24.355 32.9678 24.0099 32.9674 23.6501C32.9671 23.2903 33.1114 22.9449 33.3694 22.6897L36.193 19.9124C36.4563 19.6654 36.8061 19.5276 37.1703 19.5276C37.5341 19.5276 37.8839 19.6654 38.1472 19.9124C38.4063 20.1675 38.5517 20.5133 38.5517 20.8735C38.5517 21.234 38.4063 21.5798 38.1472 21.8349L37.3897 22.5823L35.3297 24.6081C35.0664 24.8562 34.7158 24.9946 34.3514 24.995C33.9866 24.9953 33.6353 24.8571 33.3716 24.6094ZM36.4117 27.5996C36.153 27.3445 36.0075 26.9991 36.0075 26.6386C36.0075 26.2784 36.1529 25.9326 36.4117 25.6779L38.473 23.6507C38.7364 23.4037 39.0862 23.266 39.45 23.266C39.8138 23.266 40.1636 23.4037 40.4269 23.6507C40.6856 23.9058 40.8311 24.2512 40.8311 24.6114C40.8311 24.972 40.6856 25.3174 40.4269 25.5725L38.3677 27.5996C38.1082 27.8547 37.7563 27.9978 37.3897 27.9978C37.0227 27.9978 36.671 27.8548 36.4117 27.5996Z" fill="#2B3B50"/>
</svg>
