<svg width="48" height="48" viewBox="0 0 48 48" fill="none" xmlns="http://www.w3.org/2000/svg">
<circle cx="24" cy="24" r="22" fill="#DDE0E3"/>
<path d="M33.4721 23.3902C32.1952 23.3941 30.9724 23.8998 30.072 24.7953C29.1719 25.6908 28.6682 26.903 28.6715 28.1658C28.6747 29.4285 29.1846 30.6386 30.0893 31.5294C30.9941 32.4206 32.2195 32.9199 33.4963 32.9177C34.7732 32.9155 35.9972 32.412 36.8986 31.5183C37.8005 30.6242 38.3064 29.4127 38.3053 28.15C38.3031 26.8847 37.7925 25.6722 36.8859 24.7795C35.9796 23.8865 34.7515 23.387 33.4721 23.3902ZM33.4721 31.3109C32.6268 31.3066 31.8174 30.9709 31.2219 30.3774C30.6265 29.7835 30.2936 28.9805 30.2961 28.1446C30.2987 27.3082 30.6363 26.5074 31.2353 25.9171C31.8344 25.3271 32.6456 24.9961 33.491 24.9969C34.3367 24.9976 35.1472 25.3297 35.7451 25.921C36.3431 26.512 36.6796 27.3136 36.6807 28.1499C36.6797 28.9894 36.3406 29.7942 35.7386 30.3867C35.137 30.9791 34.3214 31.3102 33.4721 31.3069L33.4721 31.3109Z" fill="#2B3B50"/>
<path d="M41.4858 21.121C41.0561 20.6372 40.4461 20.3474 39.7959 20.3176L38.9593 20.2696C38.6869 20.2527 38.4414 20.1017 38.3054 19.8675L37.8993 19.1323C37.595 18.5603 37.0695 18.1354 36.4426 17.9539C35.8156 17.772 35.141 17.8495 34.5728 18.1687L33.8417 18.5703C33.5998 18.7002 33.3079 18.7002 33.066 18.5703L32.3349 18.1687C31.7666 17.8495 31.0921 17.772 30.4651 17.9539C29.8381 18.1353 29.3126 18.5607 29.0084 19.1327L28.6022 19.8679C28.4662 20.1021 28.2207 20.2523 27.9484 20.2692L27.144 20.2853C26.4917 20.3208 25.882 20.6167 25.4541 21.1052C25.0259 21.5933 24.8166 22.2323 24.8739 22.8761L24.9472 23.7035C24.9671 23.9753 24.846 24.2382 24.6259 24.4024L23.9477 24.9045C23.4197 25.2836 23.0694 25.8582 22.9769 26.4969C22.8841 27.1356 23.0571 27.7841 23.4564 28.2947L23.968 28.9496C24.1378 29.1669 24.1838 29.4542 24.0899 29.7124L23.7853 30.4834C23.5474 31.0845 23.5662 31.7558 23.8371 32.3433C24.108 32.9304 24.6081 33.3841 25.2232 33.6007L26.0152 33.8779C26.2748 33.9729 26.4678 34.1924 26.5269 34.4603L26.6364 34.9904L24.6868 41.2726C24.5976 41.558 24.6756 41.8686 24.8895 42.0795C25.1035 42.2904 25.4183 42.3664 25.7066 42.2767L28.3506 41.4734L29.9955 43.6747C30.1489 43.8795 30.3915 44.0004 30.6494 44H30.7875C31.0874 43.9347 31.325 43.7081 31.4008 43.4136L32.9482 38.4168C33.2593 38.4792 33.5795 38.4792 33.8906 38.4168L35.5153 43.4097C35.603 43.7145 35.8641 43.939 36.1811 43.9839H36.3113C36.5691 43.9842 36.8117 43.8634 36.9651 43.6586L38.6101 41.4572L41.2541 42.2606C41.5445 42.351 41.8615 42.2728 42.0754 42.059C42.289 41.8449 42.3641 41.5304 42.2694 41.2446L40.2792 35.1994L40.4337 34.4485C40.4917 34.1816 40.6832 33.9622 40.9414 33.8657L41.7334 33.5885C42.347 33.3736 42.8463 32.9225 43.1187 32.3379C43.3911 31.7533 43.4128 31.0845 43.1793 30.4838L42.8747 29.7128C42.7789 29.4578 42.8203 29.1716 42.9842 28.9535L43.4959 28.2987C43.8948 27.7883 44.0681 27.1396 43.9757 26.5008C43.8828 25.8621 43.5325 25.2876 43.0045 24.9085L42.3263 24.4225C42.1066 24.2583 41.9858 23.9954 42.0054 23.7236L42.0787 22.8962C42.1352 22.2489 41.921 21.6073 41.4858 21.121ZM30.3241 41.4211L29.2924 40.0392C29.0864 39.7631 28.7259 39.6473 28.3948 39.7502L26.6726 40.2845L27.745 36.818C28.2908 37.1626 28.9544 37.2745 29.585 37.1275L30.3973 36.9388C30.6675 36.8807 30.9489 36.9622 31.1444 37.1555L31.5179 37.537L30.3241 41.4211ZM38.5448 39.7502C38.2137 39.6473 37.8533 39.7635 37.6473 40.0396L36.5953 41.4494L35.3322 37.6174L35.787 37.1555C35.9824 36.9622 36.2642 36.8804 36.5344 36.9385L37.3467 37.1272C37.9469 37.2667 38.5783 37.172 39.1095 36.8621L40.2344 40.2764L38.5448 39.7502ZM42.0418 26.2018C42.2151 26.3252 42.3301 26.5135 42.3605 26.7222C42.3914 26.9313 42.3348 27.1436 42.2042 27.3107L41.6926 27.9656C41.1798 28.6305 41.0521 29.5106 41.3553 30.291L41.6599 31.062C41.7382 31.2585 41.7324 31.4787 41.6436 31.6713C41.5547 31.8636 41.3905 32.012 41.1889 32.0823L40.3968 32.3595C39.6019 32.6447 39.0134 33.3164 38.8411 34.1351L38.6746 34.9385C38.634 35.1465 38.5093 35.3294 38.329 35.4449C38.1488 35.56 37.929 35.5977 37.7202 35.5489L36.9078 35.3602C36.0821 35.1738 35.2179 35.4248 34.6254 36.023L34.0364 36.6334C33.7209 36.9368 33.2187 36.9368 32.9032 36.6334L32.3182 36.0388C31.8631 35.5776 31.2401 35.3158 30.5881 35.3118C30.4049 35.3115 30.2222 35.3315 30.0437 35.3721L29.2314 35.5607C29.0233 35.6095 28.8039 35.5725 28.624 35.4581C28.4438 35.3437 28.3186 35.1619 28.2769 34.9543L28.1105 34.1509C27.9357 33.3228 27.3344 32.6461 26.5265 32.3678L25.7345 32.0906C25.5329 32.0203 25.3686 31.8718 25.2798 31.6792C25.1909 31.487 25.1851 31.2671 25.2634 31.0703L25.568 30.2992C25.8727 29.5174 25.745 28.6351 25.2308 27.9695L24.7394 27.3107C24.6089 27.1436 24.5523 26.9313 24.5831 26.7222C24.6136 26.5135 24.7285 26.3255 24.9019 26.2022L25.58 25.7162C26.2618 25.2217 26.6353 24.4126 26.5671 23.5792L26.4939 22.7518C26.4714 22.5391 26.5381 22.3265 26.6788 22.164C26.8195 22.0015 27.0212 21.9033 27.2373 21.8922L28.0739 21.8441C28.92 21.7928 29.6782 21.3105 30.0764 20.5706L30.4825 19.8354C30.5812 19.6475 30.7531 19.508 30.9587 19.4481C31.164 19.3882 31.3848 19.4137 31.5708 19.5184L32.3019 19.92C33.0403 20.3278 33.9397 20.3278 34.678 19.92L35.4091 19.5184C35.5951 19.4137 35.8163 19.3882 36.0216 19.4481C36.2268 19.508 36.3987 19.6478 36.4977 19.8358L36.9039 20.571C37.3021 21.3108 38.0603 21.7928 38.9064 21.8441L39.743 21.8922C39.9566 21.9033 40.1564 21.9998 40.2967 22.1597C40.4367 22.3197 40.5052 22.5291 40.486 22.7396L40.4128 23.567C40.3431 24.4019 40.717 25.2124 41.3999 25.708L42.0418 26.2018Z" fill="#2B3B50"/>
<path d="M16.133 12.252C15.9807 12.101 15.774 12.0164 15.5582 12.0164C15.3428 12.0164 15.1361 12.101 14.9838 12.252L12.6157 14.5939L11.2591 13.2523C10.9418 12.9385 10.4272 12.9385 10.1099 13.2523C9.7922 13.5661 9.7922 14.075 10.1099 14.3888L12.0431 16.2688C12.1954 16.4198 12.4021 16.5044 12.6179 16.5044C12.8333 16.5044 13.04 16.4198 13.1923 16.2688L16.133 13.3606C16.4322 13.0504 16.4322 12.5622 16.133 12.252Z" fill="#2B3B50"/>
<path d="M18.8094 15.0634H28.5572C29.0058 15.0634 29.3695 14.7037 29.3695 14.2601C29.3695 13.8165 29.0058 13.4568 28.5572 13.4568H18.8094C18.3608 13.4568 17.9971 13.8165 17.9971 14.2601C17.9971 14.7037 18.3608 15.0634 18.8094 15.0634Z" fill="#2B3B50"/>
<path d="M23.2774 22.2936C23.2774 22.0806 23.1918 21.8762 23.0395 21.7256C22.8872 21.5749 22.6805 21.4903 22.4651 21.4903H18.8097C18.3611 21.4903 17.9973 21.85 17.9973 22.2936C17.9973 22.7373 18.3611 23.097 18.8097 23.097H22.4651C22.6805 23.097 22.8872 23.0123 23.0395 22.8617C23.1918 22.7111 23.2774 22.5067 23.2774 22.2936Z" fill="#2B3B50"/>
<path d="M18.8094 29.5237C18.3608 29.5237 17.9971 29.8834 17.9971 30.327C17.9971 30.7707 18.3608 31.1304 18.8094 31.1304H21.2463C21.6949 31.1304 22.0586 30.7707 22.0586 30.327C22.0586 29.8834 21.6949 29.5237 21.2463 29.5237H18.8094Z" fill="#2B3B50"/>
<path d="M16.133 20.2855C15.9807 20.1345 15.774 20.0499 15.5582 20.0499C15.3428 20.0499 15.1361 20.1345 14.9838 20.2855L12.6157 22.6274L11.2591 21.2858C10.9418 20.972 10.4272 20.972 10.1099 21.2858C9.7922 21.5996 9.7922 22.1085 10.1099 22.4223L12.0431 24.3023C12.1954 24.4533 12.4021 24.5379 12.6179 24.5379C12.8333 24.5379 13.04 24.4533 13.1923 24.3023L16.133 21.3941C16.4322 21.0839 16.4322 20.5957 16.133 20.2855Z" fill="#2B3B50"/>
<path d="M14.9874 28.3188L12.6194 30.6607L11.2628 29.3191C10.9454 29.0053 10.4309 29.0053 10.1135 29.3191C9.79621 29.6329 9.79622 30.1418 10.1135 30.4556L12.0428 32.3356C12.1951 32.4866 12.4018 32.5712 12.6175 32.5712C12.833 32.5712 13.0397 32.4866 13.192 32.3356L16.1327 29.4274C16.3604 29.1054 16.319 28.6679 16.0351 28.3931C15.7512 28.1184 15.308 28.0868 14.9874 28.3188Z" fill="#2B3B50"/>
<path d="M30.1818 4.00025H9.06159C7.99833 3.98842 6.97351 4.39403 6.21235 5.12814C5.45117 5.86226 5.01495 6.865 5 7.9165V36.0737C5.01487 37.1252 5.45113 38.128 6.21235 38.8621C6.97353 39.5962 7.99833 40.0018 9.06159 39.99H21.2696C22.3328 40.0018 23.3576 39.5962 24.1188 38.8621C24.88 38.1279 25.3162 37.1252 25.3311 36.0737C25.3311 35.6301 24.9674 35.2704 24.5188 35.2704C24.0702 35.2704 23.7065 35.6301 23.7065 36.0737C23.6916 36.6992 23.4269 37.293 22.97 37.7259C22.5134 38.1588 21.902 38.3951 21.2696 38.3833H9.06162C8.42918 38.3951 7.8178 38.1588 7.36123 37.7259C6.9043 37.2931 6.63958 36.6991 6.62471 36.0737V7.9165C6.63958 7.29104 6.9043 6.69717 7.36123 6.26429C7.8178 5.83142 8.42922 5.59507 9.06162 5.60691H13.1232V6.52286C13.1232 7.78809 14.0247 8.82022 15.1337 8.82022H24.1098C25.2188 8.82022 26.1203 7.78809 26.1203 6.52286V5.60691H30.1819C30.8143 5.59507 31.4257 5.83141 31.8823 6.26429C32.3392 6.69715 32.6039 7.29109 32.6188 7.9165V16.2317C32.6188 16.6754 32.9825 17.0351 33.4311 17.0351C33.8797 17.0351 34.2434 16.6754 34.2434 16.2317V7.9165C34.2285 6.865 33.7923 5.86225 33.0311 5.12814C32.2699 4.39402 31.2451 3.98841 30.1818 4.00025ZM24.4956 6.52292C24.4956 6.92458 24.2642 7.21364 24.1098 7.21364H15.1336C14.9791 7.21364 14.7478 6.93642 14.7478 6.52292V5.60696H24.4956L24.4956 6.52292Z" fill="#2B3B50"/>
</svg>
