<svg width="48" height="48" viewBox="0 0 48 48" fill="none" xmlns="http://www.w3.org/2000/svg">
<circle cx="24" cy="24" r="22" fill="#DDE0E3"/>
<path d="M10 42V40.7268L10.2891 40.7173C10.6811 40.7078 10.9895 40.5763 11.2144 40.323C11.4425 40.0696 11.6079 39.661 11.7108 39.0972C11.8168 38.5335 11.8874 37.7812 11.9228 36.8406L12.0915 32.2703H18.3321V42H16.8623V33.515H13.4938L13.3396 37.2302C13.2978 38.2722 13.1918 39.1479 13.0215 39.8574C12.8513 40.5637 12.5621 41.0973 12.1541 41.4584C11.7493 41.8195 11.1726 42 10.4241 42H10Z" fill="#2B3B50"/>
<path d="M21.5863 42V32.2703H27.7739V33.534H23.0754V36.4985H27.451V37.7575H23.0754V40.7363H27.8317V42H21.5863Z" fill="#2B3B50"/>
<path d="M30.3619 33.534V32.2703H38V33.534H34.9206V42H33.4364V33.534H30.3619Z" fill="#2B3B50"/>
<path fill-rule="evenodd" clip-rule="evenodd" d="M20.418 27.4981C21.488 28.0849 22.6868 28.3784 24.0144 28.3784C25.342 28.3784 26.5309 28.0849 27.581 27.4981C28.6312 26.9112 29.4634 26.1066 30.0777 25.0843C30.6919 24.062 30.9991 22.9071 30.9991 21.6198C31.0189 20.3703 30.7217 19.2628 30.1074 18.2973C29.4932 17.3128 28.6609 16.5366 27.6108 15.9687C27.4695 15.8923 27.3255 15.821 27.1788 15.7548C27.8854 15.3034 28.4553 14.7216 28.8888 14.0092C29.3842 13.1762 29.6319 12.2391 29.6319 11.1979C29.6517 10.1945 29.4139 9.30471 28.9185 8.52851C28.4232 7.73338 27.7495 7.10864 26.8974 6.65428C26.0652 6.19992 25.1042 5.9822 24.0144 6.00114C22.9444 6.00114 21.9834 6.23778 21.1314 6.71107C20.2793 7.16543 19.6056 7.78071 19.1103 8.55691C18.6149 9.33311 18.3672 10.2134 18.3672 11.1979C18.3672 12.2391 18.6149 13.1762 19.1103 14.0092C19.5468 14.7266 20.1219 15.3117 20.8354 15.7645C20.6942 15.8279 20.555 15.8959 20.418 15.9687C19.3679 16.5366 18.5356 17.3128 17.9214 18.2973C17.3071 19.2628 17 20.3703 17 21.6198C17 22.9071 17.3071 24.062 17.9214 25.0843C18.5356 26.1066 19.3679 26.9112 20.418 27.4981ZM24.0144 16.6502C25.0844 16.6502 26.0355 16.4136 26.8677 15.9403C26.9742 15.8811 27.0779 15.8193 27.1788 15.7548C27.1722 15.7519 27.1655 15.7489 27.1589 15.7459C26.2205 15.3265 25.1723 15.1167 24.0144 15.1167C22.8568 15.1167 21.7971 15.3326 20.8354 15.7645C20.8366 15.7653 20.8379 15.7661 20.8392 15.7669C20.9341 15.827 21.0315 15.8848 21.1314 15.9403C21.9834 16.4136 22.9444 16.6502 24.0144 16.6502ZM26.6299 26.1634C25.8572 26.6177 24.9853 26.8449 24.0144 26.8449C23.0237 26.8449 22.132 26.6177 21.3394 26.1634C20.5666 25.709 19.9623 25.0843 19.5264 24.2891C19.0904 23.494 18.8725 22.6042 18.8725 21.6198C18.8725 20.6732 19.0904 19.8307 19.5264 19.0924C19.9821 18.3351 20.5964 17.7388 21.3691 17.3033C22.1617 16.8679 23.0435 16.6502 24.0144 16.6502C25.0051 16.6502 25.8869 16.8679 26.6597 17.3033C27.4324 17.7388 28.0368 18.3351 28.4727 19.0924C28.9284 19.8307 29.1464 20.6732 29.1266 21.6198C29.1266 22.6042 28.8987 23.494 28.443 24.2891C28.0071 25.0843 27.4027 25.709 26.6299 26.1634ZM25.9761 14.5488C25.4014 14.8896 24.7475 15.0599 24.0144 15.0599C22.8651 15.0599 21.914 14.6908 21.1611 13.9524C20.4081 13.2141 20.0416 12.2959 20.0614 11.1979C20.0812 10.1756 20.4676 9.32365 21.2205 8.6421C21.9735 7.94163 22.9048 7.5914 24.0144 7.5914C24.7674 7.5914 25.4411 7.75232 26.0355 8.07416C26.6299 8.37706 27.0956 8.80302 27.4324 9.35204C27.7891 9.90106 27.9575 10.5163 27.9377 11.1979C27.9377 11.9362 27.7594 12.5988 27.4027 13.1857C27.046 13.7537 26.5705 14.208 25.9761 14.5488Z" fill="#2B3B50"/>
<path d="M21.1314 15.9403C21.9834 16.4136 22.9444 16.6502 24.0144 16.6502C25.0844 16.6502 26.0355 16.4136 26.8677 15.9403C26.9742 15.8811 27.0779 15.8193 27.1788 15.7548L27.1589 15.7459C26.2205 15.3265 25.1723 15.1167 24.0144 15.1167C22.8568 15.1167 21.7971 15.3326 20.8354 15.7645L20.8392 15.7669C20.9341 15.827 21.0315 15.8848 21.1314 15.9403Z" fill="#2B3B50"/>
</svg>
