<svg width="214" height="234" viewBox="0 0 214 234" fill="none" xmlns="http://www.w3.org/2000/svg">
<rect x="1.55854" y="77.6367" width="132.932" height="88.2488" rx="3.90976" stroke="#2B3B50" stroke-width="1.11707"/>
<rect x="6.02729" y="82.1049" width="123.995" height="79.3122" rx="1.67561" stroke="#2B3B50" stroke-width="1.11707"/>
<path d="M9.93659 59.2051L1 53.0612L9.93659 46.9173" stroke="black" stroke-width="1.11707"/>
<path d="M126.112 59.2051L135.049 53.0612L126.112 46.9173" stroke="black" stroke-width="1.11707"/>
<line x1="1" y1="53.0611" x2="135.049" y2="53.0611" stroke="black" stroke-width="1.11707"/>
<path d="M157.391 86.0147L163.535 77.0781L169.678 86.0147" stroke="black" stroke-width="1.11707"/>
<path d="M157.391 157.507L163.535 166.444L169.678 157.507" stroke="black" stroke-width="1.11707"/>
<line x1="163.535" y1="77.0781" x2="163.535" y2="166.444" stroke="black" stroke-width="1.11707"/>
<path d="M143.985 227.883L135.049 221.739L143.985 215.595" stroke="black" stroke-width="1.11707"/>
<path d="M120.528 227.883L129.465 221.739L120.528 215.595" stroke="black" stroke-width="1.11707"/>
<line x1="45.6836" y1="221.739" x2="168.562" y2="221.739" stroke="black" stroke-width="1.11707"/>
<line x1="130.023" y1="177.615" x2="130.023" y2="233.468" stroke="black" stroke-width="1.11707"/>
<line x1="134.49" y1="177.615" x2="134.49" y2="233.468" stroke="black" stroke-width="1.11707"/>
<path d="M24.7699 16.4782L17.3973 22.5104L19.7431 25.5265L23.9321 22.1753H24.0997V39.9368H28.7914V16.4782H24.7699ZM41.1935 15.808C38.7471 15.808 36.7699 16.4447 35.1613 17.2155C34.29 17.6512 33.5192 18.1203 32.8155 18.6565L34.8262 21.8402C35.3624 21.4715 35.9656 21.1364 36.6359 20.8348C37.7418 20.3321 39.3168 19.8294 41.1935 19.8294C44.5448 19.8294 46.2204 21.5051 46.2204 23.5158C46.2204 25.6941 44.8799 27.0346 42.8691 28.5426L32.8155 36.0829V39.9368H51.2472V36.0829H39.853V35.9153L45.8852 31.3912C48.8678 29.1458 51.0796 27.0681 51.0796 23.3482C51.0796 19.3268 47.5273 15.808 41.1935 15.808ZM59.1108 28.2075C59.1108 22.7115 61.9593 19.8294 65.143 19.8294C68.3266 19.8294 71.1752 22.7115 71.1752 28.2075C71.1752 33.7035 68.3266 36.5855 65.143 36.5855C61.9593 36.5855 59.1108 33.7035 59.1108 28.2075ZM75.8669 28.2075C75.8669 20.5332 71.1752 15.808 65.143 15.808C59.1108 15.808 54.4191 20.5332 54.4191 28.2075C54.4191 35.8818 59.1108 40.607 65.143 40.607C71.1752 40.607 75.8669 35.8818 75.8669 28.2075Z" fill="#2B3B50"/>
<path d="M92.059 37.6497L94.5166 32.1761H94.6283L95.4102 38.9902H98.4263L97.0858 27.8195H93.8463L90.8302 34.4102H90.7185L87.7024 27.8195H84.4629L83.1224 38.9902H86.1385L86.9205 32.1761H87.0322L89.4897 37.6497H92.059ZM109.601 37.6497L112.058 32.1761H112.17L112.952 38.9902H115.968L114.627 27.8195H111.388L108.372 34.4102H108.26L105.244 27.8195H102.004L100.664 38.9902H103.68L104.462 32.1761H104.574L107.031 37.6497H109.601Z" fill="#2B3B50"/>
<path d="M51.706 205.04H64.9433V209.732H69.635V205.04H72.8187V201.019H69.635V186.273H64.9433L51.706 201.019V205.04ZM57.2355 201.019V200.851L64.7757 192.305H64.9433V201.019H57.2355Z" fill="#2B3B50"/>
<path d="M88.7074 207.445L91.165 201.971H91.2767L92.0587 208.785H95.0747L93.7343 197.615H90.4947L87.4787 204.205H87.3669L84.3508 197.615H81.1113L79.7708 208.785H82.7869L83.5689 201.971H83.6806L86.1382 207.445H88.7074ZM106.249 207.445L108.707 201.971H108.818L109.6 208.785H112.616L111.276 197.615H108.036L105.02 204.205H104.908L101.892 197.615H98.6529L97.3124 208.785H100.328L101.11 201.971H101.222L103.68 207.445H106.249Z" fill="#2B3B50"/>
<path d="M200.787 87.8475C200.787 82.1504 197.469 78.9668 194.085 78.9668C192.074 78.9668 190.901 79.8381 190.097 80.9105C189.661 81.4802 189.292 82.1169 189.058 82.8207L188.89 82.8207C188.656 81.8823 188.287 81.0445 187.784 80.3072C186.946 79.0673 185.472 77.7938 183.026 77.7938C179.507 77.7938 175.988 81.3126 175.988 87.8475C175.988 94.3824 179.507 97.9011 183.026 97.9011C185.505 97.7336 186.779 96.9628 187.784 95.3877C188.287 94.6505 188.656 93.8127 188.89 92.8743L189.058 92.8743C189.292 93.5781 189.661 94.2483 190.097 94.818C190.867 95.7564 192.074 96.7282 194.085 96.7282C197.469 96.7282 200.787 93.5781 200.787 87.8475ZM193.749 91.8689C192.174 91.8689 190.733 90.3944 190.733 87.8475C190.733 85.3006 192.241 83.826 193.749 83.826C195.257 83.826 196.766 85.3006 196.766 87.8475C196.766 90.3944 195.257 91.8689 193.749 91.8689ZM186.712 87.8475C186.712 91.3663 185.07 93.0419 183.361 93.0419C181.652 93.0419 180.009 91.3663 180.009 87.8475C180.009 84.3287 181.652 82.6531 183.361 82.6531C185.07 82.6531 186.712 84.3287 186.712 87.8475ZM188.387 105.263C193.883 105.263 196.766 108.112 196.766 111.296C196.766 114.479 193.883 117.328 188.387 117.328C182.891 117.328 180.009 114.479 180.009 111.296C180.009 108.112 182.891 105.263 188.387 105.263ZM188.387 122.019C196.062 122.019 200.787 117.328 200.787 111.296C200.787 105.263 196.062 100.572 188.387 100.572C180.713 100.572 175.988 105.263 175.988 111.296C175.988 117.328 180.713 122.019 188.387 122.019Z" fill="#2B3B50"/>
<path d="M178.946 139.093L184.42 141.55L184.42 141.662L177.605 142.444L177.605 145.46L188.776 144.12L188.776 140.88L182.185 137.864L182.185 137.752L188.776 134.736L188.776 131.497L177.605 130.156L177.605 133.172L184.42 133.954L184.42 134.066L178.946 136.523L178.946 139.093ZM178.946 156.634L184.42 159.092L184.42 159.203L177.605 159.985L177.605 163.002L188.776 161.661L188.776 158.422L182.185 155.405L182.185 155.294L188.776 152.278L188.776 149.038L177.605 147.698L177.605 150.714L184.42 151.496L184.42 151.607L178.946 154.065L178.946 156.634Z" fill="#2B3B50"/>
</svg>
