<svg width="48" height="48" viewBox="0 0 48 48" fill="none" xmlns="http://www.w3.org/2000/svg">
<circle cx="24" cy="24" r="22" fill="#DDE0E3"/>
<path d="M4.32171 8.73115L14.3134 6.05988C14.7707 5.93871 15.2575 6.00293 15.6672 6.23894C16.0768 6.47494 16.3759 6.86335 16.4994 7.31913L19.1471 17.1782L24.2622 8.33938C24.5064 7.93873 24.896 7.64738 25.3499 7.52601C25.8039 7.40465 26.2872 7.46262 26.6996 7.68775L35.6573 12.8479C36.0673 13.0841 36.3666 13.4733 36.4892 13.9296C36.6118 14.3861 36.5475 14.8722 36.3108 15.2813L31.1528 24.1308L41.0767 21.4777C41.534 21.3565 42.0208 21.4207 42.4304 21.6567C42.8401 21.8928 43.1392 22.2812 43.2627 22.7369L45.94 32.7063C46.0614 33.1626 45.9971 33.6482 45.7605 34.057C45.524 34.4657 45.1347 34.7641 44.6779 34.8874C44.6779 34.8874 18.0219 41.8852 17.8726 41.9097C16.1699 42.1862 14.425 41.8226 12.9755 40.889C11.5262 39.9556 10.4754 38.5185 10.0272 36.8566L3.06001 10.9129C2.93858 10.4566 3.00294 9.971 3.23947 9.56224C3.47601 9.15348 3.8649 8.85437 4.32171 8.73115ZM30.7038 15.4755L26.8951 13.2815L25.597 15.5255L29.4053 17.7197L30.7038 15.4755ZM25.0003 16.5559L23.6912 18.8182L27.4999 21.0123L28.8086 18.7481L25.0003 16.5559ZM23.0951 19.8485L21.786 22.1108L25.5947 24.3049L26.9038 22.0425L23.0951 19.8485ZM21.19 23.1416L20.8881 23.6632L21.6178 26.38L23.6997 27.5793L24.9983 25.3352L21.19 23.1416ZM35.3376 14.2367C35.297 14.0857 35.198 13.9571 35.0623 13.8793L26.1045 8.71916C25.9685 8.64061 25.8069 8.61924 25.6549 8.65985C25.5033 8.7004 25.374 8.79956 25.2956 8.93543L19.5836 18.8029L20.4525 22.0385L26.1611 12.172C26.3318 11.8955 26.6891 11.8 26.9754 11.9543L31.8163 14.7425C32.1015 14.9068 32.1991 15.2704 32.0344 15.5547L24.4348 28.6892C24.27 28.9735 23.9056 29.0709 23.6207 28.9068L22.0546 28.0046L23.4668 33.2631C23.5816 33.6937 23.6544 34.1341 23.6842 34.5786L35.2785 14.6849C35.3573 14.5495 35.3787 14.3879 35.3376 14.2367ZM33.2342 33.0321L32.0959 28.7934L29.5665 29.4696L30.7048 33.7084L33.2342 33.0321ZM36.9152 32.048L35.7768 27.8093L33.2475 28.4855L34.3858 32.7243L36.9152 32.048ZM40.5747 31.0697L39.4364 26.8309L36.9284 27.5014L38.0667 31.7402L40.5747 31.0697ZM28.4148 29.7775L27.7596 29.9527L26.4006 32.2864L27.0453 34.6872L29.5533 34.0167L28.4148 29.7775ZM44.7889 33.0134L42.1116 23.044C42.0253 22.7298 41.7017 22.5434 41.3858 22.6259L30.3024 25.589L28.6095 28.4936L39.7035 25.5277C40.0214 25.4427 40.3483 25.631 40.4335 25.9482L41.8804 31.336C41.9213 31.4883 41.8999 31.6505 41.8208 31.787C41.7419 31.9239 41.6116 32.0236 41.4589 32.0644L26.7767 35.9897C26.624 36.0305 26.4612 36.0091 26.3242 35.93C26.1874 35.8512 26.0875 35.7215 26.0466 35.5691L25.554 33.7351C24.8789 34.79 22.6983 38.9225 21.8558 39.7564L44.3695 33.7374C44.6844 33.6513 44.8716 33.3285 44.7889 33.0134ZM11.1789 36.5477C11.7283 38.5135 13.2811 40.0422 15.2588 40.5637C17.2365 41.0853 19.3432 40.5221 20.7946 39.0837C22.2459 37.6454 22.8247 35.5472 22.3154 33.5706L15.3482 7.62699C15.2619 7.31278 14.9382 7.12634 14.6223 7.20887L4.63061 9.88015C4.31569 9.96626 4.12884 10.2892 4.21155 10.6044L11.1789 36.5477Z" fill="#2B3B50"/>
<path d="M7.53992 11.5543L12.9398 10.1107C13.2577 10.0256 13.5846 10.214 13.6698 10.5312L17.6039 25.1806C17.6448 25.3329 17.6234 25.4953 17.5444 25.6319C17.4654 25.7685 17.3351 25.8682 17.1824 25.909L11.7826 27.3526C11.6299 27.3935 11.4674 27.372 11.3305 27.2932C11.1934 27.2144 11.0934 27.0844 11.0525 26.9321L7.11841 12.2827C7.03321 11.9655 7.22195 11.6393 7.53992 11.5543ZM13.6531 15.065L9.40485 16.2007L10.0826 18.7244L14.3309 17.5887L13.6531 15.065ZM14.6394 18.7377L10.3912 19.8734L11.0689 22.3972L15.3172 21.2616L14.6394 18.7377ZM8.42429 12.5494L9.09631 15.0518L13.3446 13.916L12.6726 11.4137L8.42429 12.5494ZM16.2981 24.914L15.6257 22.4103L11.3775 23.5461L12.0495 26.0485L16.2981 24.914Z" fill="#2B3B50"/>
<path d="M16.0038 32.2953C16.7653 32.0914 17.5772 32.1979 18.26 32.5913C18.9431 32.9845 19.4416 33.6325 19.6457 34.3926C19.8501 35.1525 19.7433 35.9623 19.3489 36.6439C18.9547 37.3254 18.3053 37.8225 17.5436 38.0262C16.7818 38.2301 15.9701 38.1233 15.2874 37.73C14.6043 37.3367 14.106 36.6887 13.9019 35.9285C13.6986 35.1687 13.8058 34.3593 14.1999 33.6783C14.5938 32.9971 15.2426 32.4999 16.0038 32.2953ZM17.2342 36.8769C17.6905 36.7552 18.0797 36.4574 18.3161 36.0492C18.5523 35.6411 18.6164 35.1557 18.4942 34.7005C18.3719 34.2451 18.0734 33.857 17.6643 33.6211C17.255 33.3856 16.769 33.3217 16.3125 33.4438C15.8562 33.5657 15.4671 33.8638 15.2309 34.272C14.9949 34.6803 14.9309 35.1656 15.0534 35.6207C15.1761 36.0756 15.4747 36.463 15.8835 36.6988C16.2925 36.9341 16.778 36.9983 17.2342 36.8769Z" fill="#2B3B50"/>
</svg>
