<svg width="48" height="48" viewBox="0 0 48 48" fill="none" xmlns="http://www.w3.org/2000/svg">
<circle cx="24" cy="24" r="22" fill="#DDE0E3"/>
<path d="M43.4764 19.4205L28.7399 4.53085C28.4037 4.19112 27.9476 4 27.472 4C26.9967 4 26.5407 4.19112 26.2045 4.53085L21.2373 9.54946C20.9015 9.88953 20.7127 10.3504 20.7127 10.8311C20.7127 11.3114 20.9015 11.7722 21.2373 12.1123L24.3673 15.2753L16.7163 23.0074L15.3971 22.6202H15.3967C15.0609 22.5315 14.7161 22.7293 14.6191 23.0663C14.5223 23.4034 14.7085 23.7569 15.0394 23.864L15.6819 24.0524L13.6165 26.1396L12.2973 25.7527L12.2969 25.753C11.9611 25.664 11.616 25.8618 11.5192 26.1989C11.4222 26.5359 11.6087 26.8897 11.9392 26.9965L12.5818 27.1849L10.5164 29.2721L9.1971 28.8849C8.85695 28.7851 8.50123 28.983 8.40252 29.3264C8.30382 29.6701 8.49957 30.0293 8.83939 30.1293L9.48227 30.3178L7.41619 32.405L6.09694 32.0177C5.75711 31.918 5.40139 32.1155 5.30269 32.4592C5.20399 32.8026 5.3994 33.1621 5.73955 33.2618L6.38243 33.4503L4 35.8579L12.057 44L18.8703 37.1153L20.1896 37.5022V37.5019C20.2475 37.5193 20.3078 37.528 20.3684 37.528C20.6871 37.5273 20.957 37.29 21.0017 36.9711C21.0464 36.6524 20.8527 36.3485 20.5466 36.2585L19.9041 36.07L21.9695 33.9828L23.2893 34.3701V34.3697C23.6292 34.4695 23.9849 34.272 24.0832 33.9286C24.1819 33.5852 23.9865 33.2257 23.6467 33.1263L23.0042 32.9378L25.0696 30.8499L26.3888 31.2372C26.5538 31.2904 26.7326 31.2743 26.8856 31.192C27.0383 31.11 27.1516 30.9688 27.2 30.8011C27.248 30.633 27.2271 30.4526 27.1417 30.3007C27.0565 30.1484 26.9138 30.0379 26.7465 29.9934L26.104 29.805L28.1694 27.7178L29.4886 28.1047H29.489C29.6536 28.1579 29.8328 28.1415 29.9854 28.0595C30.1381 27.9772 30.2514 27.8362 30.2998 27.6682C30.3481 27.5005 30.3269 27.3201 30.2418 27.1678C30.1564 27.0159 30.0139 26.9051 29.8463 26.8609L29.2035 26.6725L32.4245 23.4174L35.9717 27.0022V27.0019C36.3083 27.3409 36.7643 27.5314 37.2396 27.5314C37.7149 27.5314 38.1709 27.3409 38.5075 27.0019L43.4763 21.9832C43.8119 21.6428 44 21.1823 44 20.702C44 20.2217 43.8119 19.7608 43.4763 19.4204L43.4764 19.4205ZM12.0574 42.1683L5.81307 35.858L7.78741 33.8628L17.4662 36.7028L12.0574 42.1683ZM18.5015 35.6562L8.82354 32.8161L10.8889 30.7289L20.5669 33.569L18.5015 35.6562ZM21.6023 32.5227L11.9235 29.6826L13.9889 27.5954L23.6677 30.4355L21.6023 32.5227ZM24.703 29.3891L15.0251 26.5491L17.0905 24.4619L26.7684 27.3019L24.703 29.3891ZM27.8038 26.2556L18.1259 23.4156L25.1393 16.3277L31.3837 22.6383L27.8038 26.2556ZM28.6759 12.9315L31.9632 9.60979L38.4441 16.1661L35.1567 19.4882L28.6759 12.9315ZM27.1159 5.43997L27.1162 5.43964C27.3163 5.23881 27.6392 5.23881 27.8396 5.43964L31.0577 8.69167L27.7703 12.0137L24.1906 8.39614L27.1159 5.43997ZM37.6011 26.086C37.398 26.2791 37.0814 26.2791 36.8784 26.086L22.1444 11.1963C21.9453 10.9945 21.9453 10.6678 22.1444 10.466L23.2788 9.31928L38.7352 24.9389L37.6011 26.086ZM42.5679 21.0667L39.642 24.0232L36.0632 20.4063L39.3502 17.0842L42.5682 20.3363V20.3359C42.7663 20.5384 42.7663 20.8641 42.5682 21.0666L42.5679 21.0667Z" fill="#2B3B50"/>
</svg>
