<svg width="48" height="48" viewBox="0 0 48 48" fill="none" xmlns="http://www.w3.org/2000/svg">
<g clip-path="url(#clip0_2_320)">
<circle cx="24" cy="24" r="22" fill="#DDE0E3"/>
<path fill-rule="evenodd" clip-rule="evenodd" d="M13.1491 34.9225C18.4394 40.2237 27.0167 40.2237 32.307 34.9225C37.5973 29.6213 37.5973 21.0263 32.307 15.7252C27.0167 10.424 18.4394 10.424 13.1491 15.7252C7.85877 21.0263 7.85877 29.6213 13.1491 34.9225ZM12.13 35.9436C17.9831 41.8087 27.4729 41.8087 33.326 35.9436C39.1791 30.0784 39.1791 20.5692 33.326 14.704C27.4729 8.83887 17.9831 8.83887 12.13 14.704C6.27693 20.5692 6.27693 30.0784 12.13 35.9436Z" fill="#2B3B50"/>
<path d="M26.804 11.4366L24.6392 17.9191M24.6392 17.9191L30.5088 23.8009M24.6392 17.9191L16.4506 19.8507M30.5088 23.8009L36.5867 22.0564M30.5088 23.8009L28.1899 31.6142M28.1899 31.6142L20.3926 33.9379M28.1899 31.6142L32.103 35.5353M20.3926 33.9379L14.5229 28.0562M20.3926 33.9379L18.456 39.0154M14.5229 28.0562L16.4506 19.8507M14.5229 28.0562L9.45588 29.9967M16.4506 19.8507L12.5375 15.9296" stroke="#2B3B50" stroke-width="1.25"/>
<path d="M36.6279 26.6861H41.2395C42.3538 26.6861 43.2571 25.7809 43.2571 24.6643C43.2571 23.5478 42.3538 22.6426 41.2395 22.6426H36.6279V21.1985H41.2395C43.1497 21.1985 44.6982 22.7502 44.6982 24.6643C44.6982 26.5785 43.1497 28.1302 41.2395 28.1302H36.6279V26.6861Z" fill="#2B3B50"/>
<path d="M27.8577 38.7683L29.0513 43.232C29.3397 44.3105 28.7009 45.4191 27.6246 45.7081C26.5483 45.9971 25.442 45.357 25.1536 44.2785L23.96 39.8148L22.568 40.1886L23.7616 44.6523C24.256 46.5012 26.1525 47.5984 27.9976 47.103C29.8427 46.6076 30.9377 44.7071 30.4433 42.8582L29.2497 38.3945L27.8577 38.7683Z" fill="#2B3B50"/>
<path d="M24.7454 10.7356V6.11452C24.7454 4.99795 23.8421 4.09278 22.7278 4.09278C21.6135 4.09278 20.7102 4.99795 20.7102 6.11452V10.7356H19.269V6.11452C19.269 4.20039 20.8176 2.64868 22.7278 2.64868C24.638 2.64868 26.1865 4.20039 26.1865 6.11452V10.7356H24.7454Z" fill="#2B3B50"/>
<path d="M8.16852 24.3959L3.71403 23.1998C2.63771 22.9108 1.99898 21.8022 2.28737 20.7237C2.57577 19.6452 3.68209 19.0051 4.75841 19.2941L9.21291 20.4902L9.5859 19.0953L5.1314 17.8992C3.28629 17.4038 1.38974 18.501 0.895343 20.3499C0.400946 22.1989 1.49592 24.0993 3.34103 24.5947L7.79553 25.7908L8.16852 24.3959Z" fill="#2B3B50"/>
<path d="M31.8993 6.73948C30.5272 8.1144 29.8817 9.94084 29.9647 11.7446L30.0651 13.0705L28.5727 12.392C28.2924 10.0168 29.0616 7.54084 30.8803 5.71835C34.032 2.56019 39.1419 2.56019 42.2935 5.71835C45.4452 8.8765 45.4452 13.9969 42.2935 17.155C40.4748 18.9775 38.0039 19.7483 35.6336 19.4674L34.9565 17.972L36.2796 18.0725C38.0797 18.1557 39.9024 17.5088 41.2745 16.1339C43.8634 13.5397 43.8634 9.33368 41.2745 6.73948C38.6856 4.14528 34.4882 4.14528 31.8993 6.73948Z" fill="#2B3B50"/>
<path fill-rule="evenodd" clip-rule="evenodd" d="M33.937 8.37325C34.4998 8.9372 35.4123 8.9372 35.9751 8.37325C36.5379 7.80929 36.5379 6.89494 35.9751 6.33098C35.4123 5.76702 34.4998 5.76702 33.937 6.33098C33.3742 6.89494 33.3742 7.80929 33.937 8.37325ZM32.918 9.39438C34.0436 10.5223 35.8685 10.5223 36.9941 9.39438C38.1197 8.26647 38.1197 6.43776 36.9941 5.30985C35.8685 4.18193 34.0436 4.18193 32.918 5.30985C31.7924 6.43776 31.7924 8.26647 32.918 9.39438Z" fill="#2B3B50"/>
<path fill-rule="evenodd" clip-rule="evenodd" d="M39.644 14.0915C40.2068 14.6555 41.1193 14.6555 41.6821 14.0915C42.2449 13.5276 42.2449 12.6132 41.6821 12.0492C41.1193 11.4853 40.2068 11.4853 39.644 12.0492C39.0812 12.6132 39.0812 13.5276 39.644 14.0915ZM38.625 15.1126C39.7506 16.2406 41.5756 16.2406 42.7012 15.1126C43.8268 13.9847 43.8268 12.156 42.7012 11.0281C41.5756 9.90019 39.7506 9.90019 38.625 11.0281C37.4994 12.156 37.4994 13.9847 38.625 15.1126Z" fill="#2B3B50"/>
</g>
<defs>
<clipPath id="clip0_2_320">
<rect width="48" height="48" fill="white"/>
</clipPath>
</defs>
</svg>
