<svg width="24" height="24" viewBox="0 0 24 24" fill="none" xmlns="http://www.w3.org/2000/svg">
<path d="M12 0C12.3183 0 12.6235 0.126428 12.8485 0.351472C13.0736 0.576515 13.2 0.88174 13.2 1.2V4.8C13.2 5.11826 13.0736 5.42348 12.8485 5.64853C12.6235 5.87357 12.3183 6 12 6C11.6817 6 11.3765 5.87357 11.1515 5.64853C10.9264 5.42348 10.8 5.11826 10.8 4.8V1.2C10.8 0.88174 10.9264 0.576515 11.1515 0.351472C11.3765 0.126428 11.6817 0 12 0ZM12 18C12.3183 18 12.6235 18.1264 12.8485 18.3515C13.0736 18.5765 13.2 18.8817 13.2 19.2V22.8C13.2 23.1183 13.0736 23.4235 12.8485 23.6485C12.6235 23.8736 12.3183 24 12 24C11.6817 24 11.3765 23.8736 11.1515 23.6485C10.9264 23.4235 10.8 23.1183 10.8 22.8V19.2C10.8 18.8817 10.9264 18.5765 11.1515 18.3515C11.3765 18.1264 11.6817 18 12 18ZM24 12C24 12.3183 23.8736 12.6235 23.6485 12.8485C23.4235 13.0736 23.1183 13.2 22.8 13.2H19.2C18.8817 13.2 18.5765 13.0736 18.3515 12.8485C18.1264 12.6235 18 12.3183 18 12C18 11.6817 18.1264 11.3765 18.3515 11.1515C18.5765 10.9264 18.8817 10.8 19.2 10.8H22.8C23.1183 10.8 23.4235 10.9264 23.6485 11.1515C23.8736 11.3765 24 11.6817 24 12ZM6 12C6 12.3183 5.87357 12.6235 5.64853 12.8485C5.42348 13.0736 5.11826 13.2 4.8 13.2H1.2C0.88174 13.2 0.576515 13.0736 0.351472 12.8485C0.126428 12.6235 0 12.3183 0 12C0 11.6817 0.126428 11.3765 0.351472 11.1515C0.576515 10.9264 0.88174 10.8 1.2 10.8H4.8C5.11826 10.8 5.42348 10.9264 5.64853 11.1515C5.87357 11.3765 6 11.6817 6 12ZM20.4852 20.4852C20.2602 20.7102 19.955 20.8365 19.6368 20.8365C19.3186 20.8365 19.0134 20.7102 18.7884 20.4852L16.2432 17.94C16.0246 17.7137 15.9037 17.4106 15.9064 17.0959C15.9091 16.7813 16.0353 16.4803 16.2578 16.2578C16.4803 16.0353 16.7813 15.9091 17.0959 15.9064C17.4106 15.9037 17.7137 16.0246 17.94 16.2432L20.4852 18.7872C20.5968 18.8986 20.6853 19.031 20.7457 19.1767C20.8061 19.3224 20.8371 19.4785 20.8371 19.6362C20.8371 19.7939 20.8061 19.9501 20.7457 20.0957C20.6853 20.2414 20.5968 20.3738 20.4852 20.4852ZM7.7568 7.7568C7.53177 7.98177 7.2266 8.10814 6.9084 8.10814C6.5902 8.10814 6.28503 7.98177 6.06 7.7568L3.516 5.2128C3.29083 4.98779 3.16427 4.68255 3.16416 4.36422C3.16404 4.0459 3.29039 3.74057 3.5154 3.5154C3.74041 3.29023 4.04565 3.16367 4.36398 3.16356C4.6823 3.16344 4.98763 3.28979 5.2128 3.5148L7.7568 6.06C7.98177 6.28503 8.10814 6.5902 8.10814 6.9084C8.10814 7.2266 7.98177 7.53177 7.7568 7.7568ZM3.516 20.4852C3.29103 20.2602 3.16466 19.955 3.16466 19.6368C3.16466 19.3186 3.29103 19.0134 3.516 18.7884L6.0612 16.2432C6.1719 16.1286 6.30431 16.0372 6.45072 15.9743C6.59712 15.9114 6.75458 15.8783 6.91392 15.8769C7.07325 15.8755 7.23127 15.9059 7.37875 15.9662C7.52622 16.0266 7.6602 16.1157 7.77287 16.2283C7.88555 16.341 7.97465 16.475 8.03499 16.6225C8.09532 16.7699 8.12569 16.9279 8.1243 17.0873C8.12292 17.2466 8.08981 17.4041 8.02692 17.5505C7.96403 17.6969 7.87261 17.8293 7.758 17.94L5.214 20.4852C5.10255 20.5968 4.97021 20.6853 4.82453 20.7457C4.67885 20.8061 4.5227 20.8371 4.365 20.8371C4.2073 20.8371 4.05115 20.8061 3.90547 20.7457C3.75979 20.6853 3.62745 20.5968 3.516 20.4852ZM16.2432 7.7568C16.0182 7.53177 15.8919 7.2266 15.8919 6.9084C15.8919 6.5902 16.0182 6.28503 16.2432 6.06L18.7872 3.5148C19.0122 3.28963 19.3175 3.16307 19.6358 3.16296C19.9541 3.16284 20.2594 3.28919 20.4846 3.5142C20.7098 3.73921 20.8363 4.04445 20.8364 4.36278C20.8366 4.6811 20.7102 4.98643 20.4852 5.2116L17.94 7.7568C17.715 7.98177 17.4098 8.10814 17.0916 8.10814C16.7734 8.10814 16.4682 7.98177 16.2432 7.7568Z" fill="#2B3B50"/>
</svg>
