<svg id="question" width="8" height="12" viewBox="0 0 8 12" fill="none" xmlns="http://www.w3.org/2000/svg">
<path d="M2.81092 9.71429V12H5.12158V9.71429H2.81092ZM5.12158 7.83429C6.05009 7.55746 6.84719 6.95995 7.36773 6.15056C7.88827 5.34118 8.0976 4.37378 7.95762 3.42453C7.81763 2.47529 7.33763 1.60736 6.60504 0.978808C5.87246 0.350256 4.93601 0.00290028 3.96625 1.16308e-08C3.03142 -7.04678e-05 2.12542 0.320176 1.40233 0.906278C0.679243 1.49238 0.183709 2.30815 0 3.21486L2.26676 3.664C2.33109 3.34564 2.48548 3.05189 2.71199 2.81693C2.93849 2.58198 3.22778 2.41548 3.5462 2.33681C3.86463 2.25813 4.19909 2.27053 4.51067 2.37254C4.82225 2.47455 5.09814 2.66199 5.30624 2.91304C5.51435 3.1641 5.6461 3.46845 5.68617 3.79068C5.72625 4.11291 5.673 4.43977 5.53262 4.73324C5.39224 5.0267 5.1705 5.2747 4.8932 5.44838C4.61591 5.62205 4.29446 5.71427 3.96625 5.71429C3.65984 5.71429 3.36598 5.83469 3.14931 6.04902C2.93264 6.26335 2.81092 6.55404 2.81092 6.85714V8.57143H5.12158V7.83429Z" fill="white"/>
</svg>
