<svg id="rocket" viewBox="0 0 18 18" xmlns="http://www.w3.org/2000/svg">
<path d="M17.9022 0.686319V0.682899C17.87 0.542013 17.7991 0.412913 17.6975 0.310163C17.5959 0.207413 17.4676 0.135104 17.3271 0.101392C16.1945 -0.174918 14.4127 0.119636 12.4383 0.91018C10.4482 1.70833 8.58361 2.88654 7.3233 4.14913C6.91934 4.55095 6.54405 4.98059 6.2002 5.43491C5.3515 5.3969 4.6039 5.51776 3.97413 5.79255C1.77961 6.75831 0.179897 8.25692 0.013047 9.27171C-0.0110968 9.41589 -0.00164314 9.56371 0.0406721 9.70365C0.0829872 9.84358 0.157022 9.97187 0.257016 10.0785C0.35701 10.1852 0.480264 10.2673 0.617188 10.3185C0.754112 10.3698 0.901012 10.3887 1.04645 10.3739H1.0514L4.46898 11.0801C4.47202 11.1112 4.47544 11.1397 4.4781 11.166C4.5095 11.4639 4.64234 11.7419 4.85437 11.9535L6.04741 13.1473C6.25867 13.3596 6.53665 13.4926 6.83453 13.5239L6.91625 13.5327L7.62318 16.9472V16.9521C7.60958 17.0836 7.62357 17.2165 7.66426 17.3423C7.70494 17.4681 7.77143 17.584 7.85946 17.6826C7.94749 17.7812 8.05514 17.8604 8.17551 17.9151C8.29588 17.9697 8.42634 17.9986 8.55853 18C8.61137 18 8.66412 17.9957 8.71625 17.9871C9.73674 17.8229 11.2342 16.2308 12.1973 14.0245C12.4698 13.3989 12.5903 12.6543 12.5565 11.8071C13.0128 11.4641 13.444 11.0887 13.8468 10.684C15.1174 9.41993 16.2994 7.57052 17.0892 5.60936C17.8755 3.65732 18.1716 1.86225 17.9022 0.686319ZM13.8331 7.33297C13.5208 7.64559 13.1228 7.85856 12.6895 7.94493C12.2561 8.03131 11.8069 7.98721 11.3986 7.81822C10.9903 7.64922 10.6413 7.36293 10.3958 6.99556C10.1503 6.62818 10.0192 6.19623 10.0192 5.75435C10.0192 5.31248 10.1503 4.88053 10.3958 4.51315C10.6413 4.14578 10.9903 3.85948 11.3986 3.69049C11.8069 3.5215 12.2561 3.4774 12.6895 3.56378C13.1228 3.65015 13.5208 3.86312 13.8331 4.17574C14.0424 4.38191 14.2087 4.62765 14.3221 4.89867C14.4356 5.16968 14.494 5.46055 14.494 5.75435C14.494 6.04816 14.4356 6.33903 14.3221 6.61004C14.2087 6.88106 14.0424 7.1268 13.8331 7.33297Z" />
<path d="M4.33033 14.5665C4.18326 14.5483 4.03459 14.5844 3.91225 14.668C3.66939 14.8341 3.42539 14.9983 3.1791 15.1583C2.68083 15.4821 2.08488 14.9135 2.38096 14.3981L2.84274 13.6C2.90876 13.5034 2.94552 13.3899 2.94862 13.2729C2.95171 13.156 2.92101 13.0406 2.86019 12.9407C2.79937 12.8407 2.71102 12.7605 2.60572 12.7095C2.50043 12.6585 2.38267 12.639 2.26655 12.6533C1.75403 12.7181 1.27763 12.9515 0.912366 13.3168C0.773261 13.4563 0.350244 13.8797 0.122583 15.4931C0.0577812 15.9566 0.0169321 16.423 0.000199695 16.8906C-0.00188072 16.9718 0.012312 17.0526 0.0419396 17.1281C0.0715672 17.2037 0.11603 17.2726 0.172707 17.3307C0.229384 17.3889 0.297126 17.4351 0.37194 17.4666C0.446754 17.4981 0.527124 17.5144 0.608311 17.5143H0.623514C1.09151 17.4978 1.55834 17.4572 2.02217 17.3927C3.63632 17.1647 4.05972 16.7413 4.19883 16.6022C4.56585 16.2368 4.79875 15.7581 4.85977 15.2438C4.87931 15.0838 4.83452 14.9226 4.73524 14.7956C4.63596 14.6686 4.49032 14.5862 4.33033 14.5665Z" />
</svg>
