<!-- <svg id="yt" viewBox="0 0 28 20" xmlns="http://www.w3.org/2000/svg">
<path fill-rule="evenodd" clip-rule="evenodd"  d="M26.9086 1.71686C25.8979 0.497419 24.0319 0 20.4681 0H7.53164C3.88631 0 1.98863 0.529505 0.981716 1.82778C0 3.09361 0 4.9587 0 7.54004V12.4601C0 17.4609 1.1648 20 7.53164 20H20.4682C23.5587 20 25.2712 19.5611 26.3791 18.4849C27.5152 17.3814 28 15.5795 28 12.4601V7.54004C28 4.8178 27.924 2.9417 26.9086 1.71686ZM17.9761 10.6793L12.1017 13.7954C11.9704 13.865 11.8267 13.8996 11.6833 13.8996C11.5209 13.8996 11.3589 13.8552 11.2154 13.767C10.9451 13.6008 10.7801 13.3035 10.7801 12.9829V6.77072C10.7801 6.45059 10.9447 6.15357 11.2144 5.98728C11.4842 5.82098 11.8197 5.80961 12.0996 5.95721L17.974 9.0532C18.2729 9.21069 18.4606 9.52385 18.461 9.86551C18.4614 10.2075 18.2745 10.5211 17.9761 10.6793Z" fill="white"/>
</svg> -->
<svg id="yt" height="12" viewBox="0 0 17 12" xmlns="http://www.w3.org/2000/svg">
    <path d="M16.1452 1.03011C15.5388 0.298451 14.4191 0 12.2809 0H4.51898C2.33179 0 1.19318 0.317703 0.58903 1.09667C0 1.85616 0 2.97522 0 4.52402V7.47603C0 10.4766 0.69888 12 4.51898 12H12.2809C14.1352 12 15.1627 11.7366 15.8274 11.0909C16.5091 10.4288 16.8 9.34771 16.8 7.47603V4.52402C16.8 2.89068 16.7544 1.76502 16.1452 1.03011ZM10.7857 6.40758L7.26101 8.27722C7.18222 8.31902 7.09605 8.33976 7.00999 8.33976C6.91255 8.33976 6.81533 8.31314 6.72921 8.26022C6.56707 8.1605 6.46805 7.98212 6.46805 7.78972V4.06243C6.46805 3.87036 6.56679 3.69214 6.72862 3.59236C6.89049 3.49259 7.09182 3.48577 7.25977 3.57432L10.7844 5.43192C10.9637 5.52641 11.0763 5.71431 11.0766 5.91931C11.0768 6.12447 10.9647 6.31264 10.7857 6.40758Z" fill="white"/>
</svg>
