<svg width="40" height="40" viewBox="0 0 40 40" fill="none" xmlns="http://www.w3.org/2000/svg">
<circle cx="20.0013" cy="20" r="18.3333" fill="#DDE0E3"/>
<path d="M26.0006 16.4H27.2006V15.8C27.2006 15.1568 26.8575 14.5627 26.3006 14.2411C25.7437 13.9196 25.0575 13.9196 24.5006 14.2411C23.9437 14.5628 23.6006 15.1568 23.6006 15.8V16.4H24.8006V15.8C24.8006 15.4686 25.0692 15.2 25.4006 15.2C25.7319 15.2 26.0006 15.4686 26.0006 15.8V16.4Z" fill="#2B3B50"/>
<path d="M27.8002 17.9999L26.6002 17.9999V18.5999C26.6002 19.243 26.9433 19.8372 27.5002 20.1588C28.0571 20.4802 28.7433 20.4802 29.3002 20.1588C29.8571 19.8371 30.2002 19.2431 30.2002 18.5999V17.9999H29.0002V18.5999C29.0002 18.9313 28.7315 19.1999 28.4002 19.1999C28.0689 19.1999 27.8002 18.9313 27.8002 18.5999V17.9999Z" fill="#2B3B50"/>
<path d="M30.8006 15.8C30.8006 15.4686 31.0692 15.2 31.4006 15.2C31.7319 15.2 32.0006 15.4686 32.0006 15.8V16.4H33.2006V15.8C33.2006 15.1568 32.8575 14.5627 32.3006 14.2411C31.7437 13.9196 31.0575 13.9196 30.5006 14.2411C29.9437 14.5628 29.6006 15.1568 29.6006 15.8V16.4H30.8006V15.8Z" fill="#2B3B50"/>
<path d="M37.4001 23H31.4001V22.9371C33.5606 21.9417 35.0914 19.9448 35.4916 17.6H36.2001C36.8432 17.6 37.4373 17.2569 37.759 16.7C38.0804 16.1431 38.0804 15.4569 37.759 14.9C37.4373 14.3431 36.8432 14 36.2001 14H35.6001V12.2C35.5979 10.8728 35.1961 9.57715 34.447 8.48159C33.698 7.38602 32.6363 6.54177 31.4001 6.05827C31.4001 6.05827 28.5 4.99999 26.6001 5.60001L25.4001 6.05827C24.1639 6.54176 23.1021 7.38602 22.3532 8.48159C21.604 9.57715 21.2022 10.8727 21.2001 12.2V14H20.6001C19.9569 14 19.3628 14.3431 19.0412 14.9C18.7197 15.4569 18.7197 16.1431 19.0412 16.7C19.3629 17.2569 19.9569 17.6 20.6001 17.6H21.3085C21.7087 19.9448 23.2395 21.9417 25.4001 22.9371V23H14.9896L12.8001 18.0728V14.6C12.8001 14.4409 12.7369 14.2882 12.6244 14.1757C12.5119 14.0632 12.3592 14 12.2001 14H10.4001V2.00001H8.24836C7.54578 1.99813 6.87159 2.27724 6.37575 2.77521C6.10495 3.04789 5.73611 3.20083 5.3517 3.20003H2V10.4H5.3517C6.05429 10.4019 6.72848 10.1228 7.22432 9.62483C7.49512 9.35215 7.86396 9.19921 8.24836 9.20001H9.20007V14H8.60007C8.26873 14 8.00007 14.2687 8.00007 14.6V18.2C8.00007 18.2763 8.01453 18.3522 8.04266 18.4231L11.0392 25.9139C11.2601 26.4716 11.6442 26.9502 12.1411 27.2867C12.638 27.6231 13.2249 27.802 13.8249 27.7999H18.8001V37.3999C18.8001 37.559 18.8633 37.7117 18.9758 37.8242C19.0883 37.9367 19.241 37.9999 19.4001 37.9999H37.4001C37.5592 37.9999 37.7118 37.9367 37.8243 37.8242C37.9368 37.7117 38.0001 37.559 38.0001 37.3999V23.5999C38.0001 23.4408 37.9368 23.2881 37.8243 23.1756C37.7118 23.0631 37.5592 23 37.4001 23ZM8.2483 8.00001C7.54571 7.99813 6.87152 8.27724 6.37568 8.77521C6.10488 9.04789 5.73604 9.20083 5.35163 9.20003H3.19993V4.40003H5.35163C6.05422 4.4019 6.72841 4.1228 7.22425 3.62483C7.49505 3.35215 7.86389 3.19921 8.2483 3.20001H9.2V8.00001H8.2483ZM36.2001 15.2C36.5314 15.2 36.8001 15.4687 36.8001 15.8C36.8001 16.1313 36.5314 16.4 36.2001 16.4H35.6001V15.2H36.2001ZM27.8001 6.80001H29.0001C30.3278 6.80162 31.6087 7.2918 32.5985 8.17706C33.588 9.06204 34.2174 10.2806 34.3666 11.6H33.8001C33.3228 11.6 32.8647 11.4104 32.5273 11.0729C32.1898 10.7354 32.0001 10.2773 32.0001 9.80004C32.0001 9.64094 31.9369 9.48826 31.8244 9.37576C31.7119 9.26326 31.5592 9.20004 31.4001 9.20004H30.2001C29.8688 9.20004 29.6001 9.46871 29.6001 9.80004C29.6001 10.2774 29.4105 10.7354 29.073 11.0729C28.7355 11.4103 28.2774 11.6 27.8002 11.6H22.4336C22.5828 10.2806 23.2122 9.06204 24.2017 8.17706C25.1915 7.2918 26.4722 6.80159 27.8001 6.80001ZM20.6001 16.4C20.2687 16.4 20.0001 16.1313 20.0001 15.8C20.0001 15.4687 20.2687 15.2 20.6001 15.2H21.2001V16.4H20.6001ZM22.4001 16.4V12.8H27.8001C28.4914 12.7992 29.1613 12.56 29.6967 12.1229C30.2325 11.6857 30.6008 11.0772 30.7401 10.4H30.8601C30.9993 11.0772 31.3676 11.6857 31.9034 12.1229C32.4388 12.56 33.1087 12.7992 33.8001 12.8H34.4001V16.4C34.4001 18.5437 33.2566 20.5244 31.4001 21.5961C29.5436 22.6678 27.2566 22.6678 25.4001 21.5961C23.5436 20.5244 22.4001 18.5436 22.4001 16.4ZM25.4001 24.2H30.2001H32.7892L29.8438 29.6H26.9566L24.0113 24.2H25.4001ZM9.20007 15.2H11.6001V17.6H9.20007V15.2ZM12.154 25.4686L9.48615 18.8003H11.8101L14.0518 23.8438C14.1479 24.0607 14.363 24.2003 14.6001 24.2003H16.4001V26.6003H13.8249C13.4649 26.6016 13.1129 26.4942 12.8148 26.2923C12.5167 26.0906 12.2863 25.8034 12.154 25.4686ZM36.7999 36.8H19.9999V27.2C19.9999 27.0409 19.9367 26.8882 19.8242 26.7757C19.7117 26.6632 19.559 26.6 19.3999 26.6H17.5999V24.2H22.6434L25.9999 30.3529V30C25.9999 30.1591 26.0631 30.3118 26.1756 30.4243C26.2881 30.5368 26.4408 30.6 26.5999 30.6H30.1999C30.359 30.6 30.5117 30.5368 30.6242 30.4243C30.7367 30.3118 30.7999 30.1591 30.7999 30V30.3529L34.1564 24.2H36.7999V36.8Z" fill="#2B3B50"/>
</svg>
