<svg width="40" height="40" viewBox="0 0 40 40" fill="none" xmlns="http://www.w3.org/2000/svg">
<circle cx="20.0013" cy="20" r="18.3333" fill="#DDE0E3"/>
<path d="M34.4597 34.9994C34.6282 35.0073 34.79 34.932 34.8928 34.7981C34.9959 34.6642 35.0268 34.4883 34.9761 34.3271L30.8447 21.3977C30.7514 21.1918 30.5536 21.0533 30.3283 21.0357H22.5821V18.967H24.1313C24.2729 18.9839 24.4142 18.9349 24.515 18.834C24.6157 18.7331 24.6646 18.5916 24.6477 18.4498V5.52044C24.6646 5.37868 24.6157 5.23715 24.515 5.13626C24.4142 5.03536 24.2729 4.98641 24.1313 5.00327H15.8687C15.7271 4.98641 15.5858 5.03536 15.485 5.13626C15.3843 5.23715 15.3354 5.37868 15.3523 5.52044V18.4498C15.3354 18.5916 15.3843 18.7331 15.485 18.834C15.5858 18.9349 15.7271 18.9839 15.8687 18.967H17.4179V21.0357H9.67168C9.44644 21.0533 9.24863 21.1918 9.15526 21.3977L5.02393 34.3271C4.97321 34.4883 5.00411 34.6642 5.10716 34.7981C5.20998 34.932 5.37183 35.0073 5.54035 34.9994H34.4597ZM16.3851 6.03762H23.6149V17.9327H16.3851V6.03762ZM21.5492 18.967V22.1735L20 23.8802L18.4508 22.1735V18.967H21.5492ZM10.0335 22.0701H17.4179V22.3804C17.4248 22.5157 17.4797 22.644 17.5728 22.7424L19.4836 24.8628V27.759H12.2538C12.0387 27.7708 11.8533 27.9151 11.789 28.121L10.7562 31.2241C10.6796 31.3762 10.6921 31.5584 10.7891 31.6985C10.8859 31.8387 11.0517 31.9146 11.2209 31.8964H29.2955C29.4546 31.8832 29.6026 31.8091 29.7086 31.6895C29.8202 31.56 29.8407 31.3751 29.7603 31.2241L27.1782 23.9836L26.2486 24.2939L28.5725 30.8617H11.9439L12.6152 28.793H23.6152V27.7587H20.5167V24.8625L22.4275 22.7421C22.5206 22.6437 22.5755 22.5154 22.5824 22.3801V22.0698H29.9668L33.7367 33.9648H6.26333L10.0335 22.0701Z" fill="#2B3B50"/>
</svg>
