<svg width="40" height="40" viewBox="0 0 40 40" fill="none" xmlns="http://www.w3.org/2000/svg">
<circle cx="20.0013" cy="20" r="18.3333" fill="#DDE0E3"/>
<path d="M33.3323 23.445L34.5966 22.202C35.0215 21.7864 35.2755 21.231 35.3089 20.6424C35.3419 20.0538 35.1523 19.4743 34.7765 19.0152C34.4007 18.556 33.8653 18.25 33.2733 18.1563C33.4246 17.7361 33.4505 17.282 33.3486 16.8477C33.2465 16.4132 33.0205 16.0164 32.6971 15.7039C32.3184 15.3327 31.8244 15.0963 31.2934 15.0322C31.4709 14.4193 31.3905 13.7623 31.0704 13.2082C30.7503 12.6542 30.2173 12.2499 29.5911 12.0858C28.9649 11.9218 28.2982 12.0118 27.7402 12.3359C27.6369 11.9172 27.4195 11.5342 27.1113 11.2282C26.6578 10.7834 26.0441 10.5322 25.4036 10.5289C24.7628 10.5257 24.1468 10.7711 23.6888 11.2115L21.9561 12.69L20.9744 11.6548L20.9714 11.6516L17.9628 8.55738C18.3067 6.43355 17.7391 3.36453 16.1413 1.79296C15.2774 0.941462 14.1772 0.359614 12.9787 0.121234C11.7798 -0.117415 10.5364 -0.00204077 9.40393 0.452417C9.20502 0.531479 9.05942 0.703367 9.01654 0.910097C8.97366 1.11712 9.03917 1.33117 9.19074 1.48081L12.1711 4.41077C12.4573 4.69334 12.6181 5.07577 12.6181 5.47433C12.6181 5.87315 12.4573 6.25559 12.1711 6.53789C11.8874 6.819 11.5009 6.97654 11.098 6.97507H11.0893C10.6847 6.97595 10.2961 6.81753 10.0109 6.53496L7.0329 3.605C6.88134 3.45566 6.66366 3.39124 6.45344 3.43282C6.24322 3.4744 6.06813 3.617 5.98713 3.81231C5.52321 4.92565 5.4047 6.14873 5.64679 7.32818C5.88917 8.50733 6.48081 9.58964 7.34738 10.4385C9.19265 12.2537 11.9205 13.027 14.1377 12.3632C14.476 12.2616 14.6668 11.9099 14.5638 11.5773C14.4605 11.2447 14.1026 11.0573 13.7643 11.1586C11.9884 11.6909 9.77388 11.0441 8.25289 9.54841C7.10351 8.42248 6.59224 6.81169 6.88702 5.24304L9.10688 7.42601C9.63065 7.95455 10.3528 8.24707 11.1031 8.23447C11.8445 8.23594 12.5556 7.94575 13.0779 7.42833C13.604 6.90974 13.8994 6.20697 13.8994 5.47437C13.8994 4.74203 13.604 4.03922 13.0779 3.52071L10.8601 1.33976C12.454 1.0531 14.0891 1.55528 15.2337 2.68323C16.5483 3.97603 17.0331 6.85097 16.6457 8.62195C16.6016 8.8237 16.6609 9.03366 16.8041 9.18446L19.4331 11.8801L19.3334 11.9314C16.3318 13.5457 14.3154 16.4938 13.9264 19.8361L13.6105 22.4334C13.5569 22.8679 13.3568 23.2723 13.0427 23.5824L12.9185 23.7045C12.7949 23.8219 12.7246 23.983 12.7232 24.1519C12.7217 24.3209 12.7893 24.4831 12.9105 24.6026C13.0319 24.7221 13.1972 24.7885 13.369 24.7871C13.5408 24.7856 13.7046 24.7162 13.824 24.595L13.9482 24.4729C14.4651 23.9634 14.7939 23.2981 14.8823 22.5836L15.1985 19.9869C15.5371 17.051 17.3056 14.4601 19.9402 13.0403C20.0947 12.9562 20.2296 12.8924 20.3446 12.8388L21.4421 13.9937L21.4472 13.9984L21.4513 14.0033L24.0979 16.6712L24.1012 16.6733L24.1033 16.6765L26.3473 18.8832C26.3327 18.9228 26.3238 18.9638 26.311 19.0042L23.3804 19.4311L23.1213 19.1766L23.118 19.1728L20.1844 16.2877C19.9334 16.0491 19.5338 16.0526 19.287 16.2953C19.0398 16.5384 19.0366 16.931 19.2792 17.1781L21.9687 19.8229L21.2531 23.2948C21.1829 23.6357 21.4068 23.9677 21.7534 24.0368C21.7957 24.0453 21.8386 24.0494 21.8814 24.0494C22.1855 24.0491 22.4472 23.8386 22.5082 23.5458L23.0898 20.7244C23.1118 20.7276 23.1336 20.7297 23.1556 20.7306C23.1872 20.7309 23.2184 20.7285 23.2497 20.7238L26.2738 20.2834C26.4001 20.8023 26.7005 21.2644 27.1275 21.5941C27.5542 21.9238 28.0819 22.1018 28.6244 22.0995C28.6632 22.0995 28.7001 22.0901 28.7385 22.0886C28.7063 22.6611 28.8862 23.2254 29.2447 23.6775C29.6032 24.1293 30.116 24.4382 30.6883 24.5472C31.2606 24.6558 31.8538 24.5571 32.3576 24.269L35.9659 27.8176C36.2351 28.0821 36.3864 28.4411 36.3864 28.8153C36.3864 29.1893 36.2351 29.5482 35.9659 29.8127C35.6926 30.0692 35.3293 30.2124 34.9517 30.2124C34.5738 30.2124 34.2105 30.0692 33.9372 29.8127L25.9358 21.9443C25.8167 21.8228 25.6526 21.7534 25.4808 21.752C25.309 21.7505 25.1441 21.817 25.0226 21.9364C24.9011 22.0559 24.8335 22.2184 24.835 22.3871C24.8365 22.556 24.907 22.7174 25.0306 22.8345L28.82 26.5606L24.3544 29.8768C23.8503 30.2516 23.2428 30.4677 22.6113 30.4961L21.4428 30.5494C20.9408 30.572 20.4659 30.7787 20.1106 31.1283L19.1715 32.0519L11.0234 24.0324C10.7691 23.7964 10.3716 23.7964 10.1173 24.0324L1.8477 32.1655C1.60501 32.4123 1.60859 32.8053 1.85544 33.048C2.10259 33.291 2.5019 33.2943 2.75319 33.0556L10.569 25.3697L18.7178 33.3832L19.6313 34.2815L14.9171 38.9174C14.7935 39.0348 14.7232 39.1962 14.7218 39.3649C14.7203 39.5338 14.7879 39.6963 14.9093 39.8158C15.0305 39.935 15.1958 40.0014 15.3676 40C15.5394 39.9985 15.7032 39.9294 15.8226 39.8079L20.9927 34.7286C21.2428 34.4827 21.2428 34.0841 20.9927 33.8382L20.0783 32.9389L21.0174 32.0154C21.1475 31.8886 21.3208 31.8136 21.5037 31.8057L22.6724 31.7524C23.5619 31.7129 24.4179 31.4084 25.1275 30.8798L29.734 27.4579L33.0333 30.7026C33.7193 31.377 34.7189 31.6406 35.6557 31.3934C36.5928 31.1466 37.3244 30.4268 37.5754 29.5056C37.8265 28.5841 37.5585 27.6011 36.8727 26.9267L33.3323 23.445ZM24.5439 12.1489C24.5555 12.1393 24.5662 12.1293 24.5766 12.1188C24.8711 11.8523 25.2853 11.7551 25.6706 11.862C26.056 11.9692 26.357 12.2649 26.4663 12.6435C26.5753 13.0222 26.477 13.4294 26.2064 13.7194L24.5633 15.3343L22.8425 13.6005L24.5439 12.1489ZM28.1445 13.5943C28.439 13.3278 28.8534 13.2309 29.2385 13.3381C29.6238 13.4452 29.9248 13.7413 30.0339 14.1202C30.1428 14.4988 30.0443 14.9061 29.7733 15.1958L29.2611 15.6994H29.2585L27.0952 17.8268L25.4667 16.2254L28.1445 13.5943ZM27.811 20.5078C27.5957 20.2958 27.4745 20.0083 27.4742 19.7084C27.4739 19.4086 27.5942 19.1207 27.8092 18.9081L30.1621 16.5937C30.3816 16.3878 30.6731 16.273 30.9765 16.273C31.2797 16.273 31.5712 16.3878 31.7907 16.5937C32.0066 16.8063 32.1278 17.0944 32.1278 17.3946C32.1278 17.695 32.0066 17.9831 31.7907 18.1958L31.1594 18.8186L29.4427 20.5067C29.2233 20.7135 28.9312 20.8288 28.6275 20.8291C28.3234 20.8294 28.0307 20.7143 27.811 20.5078ZM30.3443 22.9997C30.1288 22.7871 30.0076 22.4993 30.0076 22.1988C30.0076 21.8987 30.1288 21.6105 30.3443 21.3982L32.0622 19.7089C32.2816 19.5031 32.5731 19.3883 32.8763 19.3883C33.1794 19.3883 33.4709 19.5031 33.6904 19.7089C33.906 19.9215 34.0272 20.2094 34.0272 20.5095C34.0272 20.81 33.906 21.0978 33.6904 21.3104L31.9743 22.9997C31.7582 23.2123 31.4649 23.3315 31.1594 23.3315C30.8536 23.3315 30.5605 23.2123 30.3443 22.9997Z" fill="#2B3B50"/>
</svg>
